<svg xmlns="http://www.w3.org/2000/svg" viewBox="0 0 724.22 711.86"><defs><style>.cls-1{fill:#fff;}</style></defs><g id="Layer_2" data-name="Layer 2"><g id="Layer_1-2" data-name="Layer 1"><path class="cls-1" d="M307.6,101.73c4.22-5.66,7.56-10.15,10.18-15.12,4.65-8.84,6.52-18.24,7.19-28.19.82-12.08-.24-24.47,5.45-35.94C338.81,5.56,352.84-1.85,369,.39,386.6,2.82,398.09,16,401.05,33c1.64,9.48,1.7,19.08,2.45,28.61,1.1,13.87,4.66,26.43,14.37,36.77a10.84,10.84,0,0,1,1.19,1.91c-.7,1.36-1.53.77-2.23.56-10.64-3.17-21.28-6.33-31.9-9.57-1.81-.55-2.71,0-3.53,1.6-5.86,11.57-27.67,12.4-35.32.42-1.36-2.14-2.55-2.47-4.8-1.46a37.51,37.51,0,0,1-8.5,2.81C324.63,96.1,316.82,98.71,307.6,101.73Z"/><path class="cls-1" d="M477.22,101.72c3.62-7,8-13.1,10.79-20.29,3.07-8,4-16.34,4.61-24.74.82-10.84,1.15-21.71,6.57-31.67C506.12,12.3,517,6.63,531,7.26c14.53.64,24.88,8.06,30.6,21.49,4.94,11.61,4.85,24.16,5.95,36.42,1.17,13.21,5.43,24.82,15,34.23a10,10,0,0,1,1,2.15c-11.17-4.33-22.64-5.14-32.93-10-2.2-1-3.41-.87-4.54,1.39-5.94,11.86-26.81,12.08-33.81,0-.64-1.1-.67-2.72-2.67-1.78-8.92,4.19-18.89,5-28,8.7C480.15,100.44,478.69,101.09,477.22,101.72Z"/><path class="cls-1" d="M252.81,101.43c-11.23-3.28-21.72-6.2-32.1-9.46-2.16-.68-3.1-1-4.77,1.1-9.28,12-25.32,11.49-34.21-1-1.36-1.91-2.6-.95-3.81-.43-10.24,4.38-21.43,5.44-32,9.41,9.16-9.87,13.39-21.64,15.33-34.52,1.07-7.08.23-14.19,1.28-21.3,2.29-15.37,7.37-28.82,22.86-35.27,20-8.32,40.72,2.06,47.53,23.46,2.23,7,2.48,14.31,3,21.57.82,11.27,2.12,22.41,7.24,32.78C245.58,92.59,249.45,96.27,252.81,101.43Z"/><path class="cls-1" d="M364.3,710.82H152.92c-.33,0-.67,0-1,0-4,.07-8.09.06-8.85-5.07-.54-3.66,3.39-6.39,9.06-6.41q40-.09,80-.07,172.41,0,344.81-.12c4.26,0,7.23,1.24,8.38,5.35.75,2.67-1.17,4.35-3.22,5.59-1.79,1.09-3.89.73-5.87.73H364.3Z"/><path class="cls-1" d="M225.06,334.35c-.11-7-.15-14-.34-21-.16-5.48-.46-10.95-.79-16.42-.23-3.71-3.46-5.06-6-6.74-1.42-.94-2.46.69-2.75,2a24.67,24.67,0,0,0-.44,4.94c-.12,17.49.18,35-.4,52.47-1,28.64-.52,57.28-.37,85.91.09,17.48.49,35,.48,52.44,0,1,0,2,0,3-.15,3.33-.7,6.92-4.8,6.9s-5.75-3.1-5.75-7.22q.06-93.95,0-187.9,0-58.41-.21-116.81c0-4.1,1-6.79,4.73-8.9,6-3.35,9.48-9.66,15.42-13.28,2.58-1.58.95-6.15-3-9.09-3.57-2.64-6.5-5.19-6.39-10.42.13-5.83-.25-11.12,6.83-13.47,2.33-.78,4-3.41,6.09-5,1.84-1.44,3.22-4.93,6.38-2,3,2.75,3.49,7.13,1,9.81a23.33,23.33,0,0,1-6.15,5c-3.53,1.85-4.1,5.21-.61,6.82,9.31,4.3,8.27,12.06,8.85,20.15.66,9.28-2.43,14.85-11.25,17.58-9.06,2.8-12.65,8.39-12.06,18.54a435.16,435.16,0,0,1,0,53.93c-.77,11.42,4.64,18.16,12.54,23.93,5.78,4.22,8.33,8.93,8,16.28-.64,12.3-.19,24.64-.19,37C230.81,332.68,228,333.69,225.06,334.35Z"/><path class="cls-1" d="M389.73,334.88c-.27-13-.57-25.95-.8-38.93,0-2.08-.24-3.92-2-5.36s-3.3-3.15-5.67-2.53c-2.55.67-1.63,3.35-2.19,5.1-.49,1.52-.18,3.3-.18,5q0,96,0,192c0,1.16,0,2.33-.06,3.49a3.87,3.87,0,0,1-3.29,3.87,4.66,4.66,0,0,1-5.16-2.12c-1.35-2.07-1.38-4.38-1.39-6.74q-.12-151.71-.32-303.42c0-3.57.84-6,4.23-7.59,6.24-2.94,10.12-9,16-12.52,2.71-1.63,2.81-5.19.3-7.91a38.31,38.31,0,0,0-5-4.87c-2.67-2-3.26-4.45-3.69-7.65-.92-6.87,1.69-11.31,7.48-14.58,2.28-1.29,4.2-3.24,6.25-4.93,1.69-1.4,3.34-3.14,5.61-1.09,2.09,1.89,3.3,4.14,2.22,7.1s-3.48,4.81-5.86,6.64c-4.73,3.66-4.75,5.39-.05,9.21.77.63,1.61,1.18,2.43,1.74,3.67,2.48,5.92,5.55,5.14,10.35a23.67,23.67,0,0,0,0,7c1.08,7.72-3.34,12.05-9.23,15.57-.86.51-1.77.93-2.67,1.35-15.77,7.34-12.06,3.72-12.8,20.29-.89,20-.2,40-.37,60a8.87,8.87,0,0,0,3.56,7.7c4.91,4,9.56,8.28,14.53,12.17,2.14,1.68,1.94,3.68,1.94,5.81q0,22,0,44A17.39,17.39,0,0,0,389.73,334.88Z"/><path class="cls-1" d="M329.64,333c0-14.49.1-29,0-43.48a8.25,8.25,0,0,1,3-6.93c4.52-3.92,8.71-8.24,13.32-12.05a7.31,7.31,0,0,0,2.88-6.36c-.13-23.32-.24-46.65-.08-70,0-4-1.41-6.1-4.86-7.63a55,55,0,0,1-14.11-8.4c-3.25-2.82-5.71-5.95-5.07-10.7a29.1,29.1,0,0,0,0-7c-.68-5.79.88-10.07,6.18-13.42s4.76-6.66-.39-9.85a16,16,0,0,1-5.09-5.34c-1.74-2.82-.82-5.41,1.52-7.58s4-.88,6.08.66c3.83,2.9,6.95,6.73,11.44,8.8a4.13,4.13,0,0,1,1.79,2.26c2.25,6.15-.16,14.19-5.36,18.22-5.73,4.44-5.48,7.34-.12,11.74,5.53,4.52,10.74,9.43,16.51,13.67,2.17,1.6,1.4,4,1.4,6q0,98.72,0,197.44,0,52.48-.09,105c0,1.16,0,2.33,0,3.49-.14,3.67-2,6.3-5.65,6.35s-4.87-3.06-4.93-6.28c-.11-5.83-.22-11.67.05-17.49,1.23-27.47.43-55,.57-82.44.17-32.32.07-64.64-.07-97,0-2.36,1.72-5.72-1.58-7-2.39-.93-8.09,5-8.14,8.09-.15,9.67-.17,19.33-.3,29,0,3.14.52,6.35-.87,9.37Z"/><path class="cls-1" d="M164.57,332.9c.06-15,.22-30,.1-45a8.58,8.58,0,0,1,3.69-7.58c4.71-3.67,9.14-7.7,13.81-11.44,1.54-1.24,1.69-2.73,1.68-4.42,0-23.65-.06-47.31,0-71,0-2.7-1.2-4.29-3.17-5.78-4-3-8.76-4.74-13-7.29-5.14-3-9.08-6.76-7.91-13.53a14,14,0,0,0,0-3.49c-.51-6.65-.21-12.22,7.1-16.2,6-3.29,5-8.25-1.63-10.63-3.3-1.18-4.37-3.69-5.12-6.14a6.64,6.64,0,0,1,2.66-7c2.06-1.47,3.86.19,5.61,1.75,3,2.64,6.22,5,9.43,7.33a12.46,12.46,0,0,1,.25,20.17c-.93.71-1.83,1.45-2.69,2.24-5.77,5.27-5.62,7.12.44,11.76,5.26,4,10.3,8.36,15.54,12.44,2.48,1.93,2.43,4.47,2.43,7.18q-.06,101.18-.07,202.37,0,50.22-.05,100.44c0,1.81.15,3.61-.66,5.39-1.12,2.46-3.1,2.82-5.38,2.58a4,4,0,0,1-3.87-3.86c-.13-1.32-.05-2.66-.05-4q0-96.94,0-193.88a4.17,4.17,0,0,0,0-.5c-.25-2.6.84-6.12-2.47-7-2.35-.65-7.45,5.32-7.46,7.95q-.06,16.25,0,32.48c0,2.18,0,4.34-1.21,6.27C170.06,333.08,167.3,333,164.57,332.9Z"/><path class="cls-1" d="M555.22,334.65c-1.37-9.1-.3-18.26-.67-27.39-.12-3-.52-6.1.06-9,1.47-7.22-3.2-10.3-8.22-13.67-1.63,3.82-1.71,7.55-1.71,11.33q0,96.18,0,192.36c0,3.77,1.22,9-5,8.81-5.93-.19-4.9-5.29-4.88-9.11.18-37.13,1.11-74.26.52-111.37-1-62.61-.14-125.22-.67-187.82,0-5.74,1.11-9.68,6.4-12.5,5.87-3.13,9.07-9.68,15.25-12.61,1.13-.53,1.35-1.7.69-3-1.34-2.68-2.69-5.29-5.2-7.17-7.53-5.64-7.6-15.91-.17-21.85,2.46-2,5.14-3.69,7.44-5.83s4.4-4.42,7.56-1.48,2.74,6.2.68,9.47c-1.28,2-3.54,3-5.46,4.25-5,3.32-5.38,5.15-.51,8.23,5.91,3.74,7,8.67,7.62,15.34,1.09,11.7-3.63,18.36-14.1,21.83-7.86,2.6-10.71,7.38-10.39,16,.73,20,.3,40,.2,60a10.93,10.93,0,0,0,3.66,8.82c4.54,4.16,8.73,8.7,13.36,12.75,2,1.75,1.94,3.68,2,5.82q.12,23,.22,46C560.92,333.2,557.83,332.84,555.22,334.65Z"/><path class="cls-1" d="M495,332.3c-.08-14.33-.12-28.65-.28-43a6.67,6.67,0,0,1,2.6-5.6c4.07-3.43,7.78-7.36,12.15-10.33a10.71,10.71,0,0,0,5-10.07C514,248.88,515,234.44,514,220a176.87,176.87,0,0,1,.54-24.35c.37-5.09-1.78-7.85-6.14-9.48-4.55-1.7-8.66-4.23-12.85-6.62a7.27,7.27,0,0,1-4-7.35,85.43,85.43,0,0,0,0-13.48c-.5-4.94,1.39-8,5.34-10.79,6.67-4.69,6.48-6.27-.06-11.24-2.87-2.18-6.31-4.08-5.2-8.72.48-2,1.09-3.93,3.22-4.68,1.9-.66,3.5,0,5,1.43,2.18,2,4.22,4.63,6.84,5.73,7.74,3.23,7.57,9.48,7.1,16.1-.27,3.7-3,5.37-5.7,7-2.19,1.33-4.3,2.74-5,5.29s-.78,5.36,1.87,6.65c6.88,3.36,10.82,10.24,17.35,14,2.28,1.3,1.64,3.82,1.64,5.93,0,41.15-.44,82.3.17,123.44.63,42.79.61,85.59.43,128.38-.07,15.3-.67,30.62-.54,45.93,0,2.48.3,5,.5,7.44.28,3.56-.47,6.37-4.74,6.69-4.48.33-5.13-2.4-5.12-6.06q.07-62,0-123.93c0-23.49,0-47-.16-70.46,0-2.59,1.84-6.59-2.87-7.23-3.24-.45-7.55,4.16-7.63,7.94-.17,7.82-.08,15.65-.22,23.48-.09,4.48.49,9-.55,13.44A27.2,27.2,0,0,0,495,332.3Z"/><path class="cls-1" d="M576.47,625.24q0-18.74,0-37.46c0-6.09,1.65-7.77,7.52-7.81,8.49-.05,17-.15,25.47-.09,12.85.1,25.3,9.06,28.61,22.13,3,12,1.31,25.2-11.32,33.28-2.67,1.7-1.31,2.72-.5,4.06,4.64,7.67,9.45,15.23,14,22.95,3.42,5.77,1.06,9.14-5.51,9.86-6.78.75-10.91-2-14.32-7.39-4.24-6.76-9.15-13.1-13.32-19.89-2.83-4.61-6.88-2.3-10.26-2.25-2.9,0-1.92,3.36-2,5.3-.21,5.32-.12,10.65-.2,16-.08,5.92-2.25,8.1-8.09,8.19-9.55.14-10.65-.92-10.65-10.4q0-18.23,0-36.46Zm18.32-13.55c0,13.23,0,13.23,13.38,11.36.33,0,.67,0,1,0,7.65-1.41,12.42-11.27,8.57-17.68-3.64-6.08-11.71-9.15-20.15-6.43-5.73,1.85-1.52,7.55-2.77,11.28A4.94,4.94,0,0,0,594.79,611.69Z"/><path class="cls-1" d="M43.22,656.07c-4.49,0-9,.36-13.47-.1-4-.41-6.22,1.1-7.47,4.71a22.66,22.66,0,0,1-1.57,3.11c-4.7,9.06-6.21,9.83-16.48,8.34-3.67-.54-5.31-4.15-3.47-8.51,4.86-11.47,9.92-22.86,14.85-34.31C21.72,615.12,28,601,33.75,586.67c2.29-5.67,6-6.9,11.58-6.89s6.86,3.87,8.38,7.56c9.49,23,18.84,46.12,28.23,69.19A74.8,74.8,0,0,1,85,664.39c1.21,4.26-1.34,7.51-5.75,7.74-10.49.53-12-.33-15.85-11.33-1.27-3.59-2.88-5-6.72-4.75-4.47.35-9,.08-13.48.08Zm-11.16-17c3.7,0,7,.13,10.24,0,3.74-.18,9.15,1.71,10.78-.87s-2.4-6.68-3.72-10.22c-1.8-4.85-4.06-9.55-6.52-15.23Z"/><path class="cls-1" d="M497.21,626.32c0-12.49,0-25,0-37.48,0-6.6,2.37-8.84,9.07-8.84q20.74,0,41.49,0c6.6,0,8.12,1.55,8.19,8.29,0,1.33-.05,2.67,0,4,.22,4.5-2.06,6.31-6.37,6.27-10-.08-20,0-30-.15-3,0-4.18.65-4,3.86.35,5-1.57,11.41.89,14.52,2.62,3.3,9.35.74,14.28,1.08,1.82.13,3.66,0,5.49,0,7.11,0,9.56,2.13,9.58,8.25,0,6.7-2.93,9.67-9.66,9.68-5.83,0-11.67.09-17.49,0-2.36,0-3,.71-3.14,3.11-.68,15.18-.75,15.19,14.2,15.17,6.66,0,13.33,0,20-.17,4.41-.09,6.41,2.2,6.55,6.35a34.91,34.91,0,0,1-.28,6c-.53,3.81-2.71,5.83-6.69,5.82-15.33,0-30.66.05-46,0-4,0-6.48-3-6.5-7.71,0-12.66,0-25.33,0-38Z"/><path class="cls-1" d="M691.65,672.17c-12.11.15-22-4.21-29.13-14.25-4.08-5.7-2.51-12.92,3.82-16,3.8-1.82,6.43.15,9,3,5.8,6.55,12.6,10.73,21.86,7.94,3.82-1.15,6.5-3.44,7-7.52s-1.86-6.41-5.15-8.27c-4.85-2.74-10.44-3.12-15.51-5.11-2.15-.85-4.41-1.46-6.52-2.39-9.11-4-15.52-10.35-16-20.81-.53-10.64,4.32-18.94,12.93-24.84,11.36-7.78,30.69-6.35,40.84,2.8,2.17,2,5.58,4.4,4.29,7.27-1.89,4.24-4.42,8.71-9.08,10.73-2.14.92-4.09-1-5.86-2.17-3.64-2.37-7.28-4.6-11.79-4.86-5.17-.3-9.95,2.66-10.65,7-.82,5.11,2.6,7.74,6.67,9.19,5.94,2.12,12.09,3.64,18.13,5.48,10,3.05,16,9.62,17.44,20.13,1.62,12.13-2.91,21.38-13.23,27.86C704.85,671.07,698.37,672.11,691.65,672.17Z"/><path class="cls-1" d="M364.37,672.07c-13.52,0-22.85-5.62-29.46-16-2.84-4.46-1.46-9.38,3.33-12.88,3.95-2.89,6.55-2.46,10.69,2.14,5.8,6.44,12.29,10.68,21.4,7.44,3.74-1.34,6.17-3.88,6.59-7.95s-2.27-6.35-5.48-8.07c-5.31-2.86-11.33-3.7-16.89-5.84-9.58-3.69-18-8.59-20.12-19.88-2.42-12.91,7.2-28,20.27-30.71,11.39-2.35,22.75-2.51,32.54,5.51,7.23,5.91,6.17,14.31-2.26,18.5-2.64,1.31-4.41-.27-6.27-1.6-4.4-3.14-9-5.58-14.69-5-4.33.42-7.94,2.11-8.89,6.6s2.05,7,5.75,8.82c5.11,2.5,10.84,3,16.12,5,8.47,3.17,15.73,7.41,18.85,16.86a27.46,27.46,0,0,1-16.43,34.44A38.94,38.94,0,0,1,364.37,672.07Z"/><path class="cls-1" d="M228,672.24c-11.25.21-20.82-3.55-28.11-12.28-5.3-6.33-5.08-9.92.48-15.55,4-4,7.08-4.1,10.76.46,4.93,6.1,10.85,9.58,18.86,8.54a12.36,12.36,0,0,0,7.81-3.65c3.4-3.66,3.17-8.17-.65-11.31-3.18-2.62-7.12-3.43-10.91-4.53-5.56-1.6-11.1-3.21-16.24-5.93-9.95-5.25-14.56-14.77-12.57-25.78,2.1-11.63,11.22-20.62,21.84-22.17S240,578.8,249,585.48a34.41,34.41,0,0,1,4,3.69c2.45,2.5,3,5.1.21,7.8a22.82,22.82,0,0,0-1.53,2c-6.14,7.41-6.13,7.39-14.18,1.88-4.62-3.16-9.54-4.41-15-2.3-3.26,1.26-5.39,3.75-5.54,7-.12,2.79,1.62,5.23,4.26,6.85a29.36,29.36,0,0,0,8.33,3.12,103.51,103.51,0,0,1,14.7,4.61c8.76,3.73,14.33,10,15.46,19.66,1.34,11.59-2.36,21-12.36,27.43A33.25,33.25,0,0,1,228,672.24Z"/><path class="cls-1" d="M436.88,633.66c0-10.15-.11-20.32.07-30.47.06-3.23-.89-4.41-4.19-4.22-4.49.25-9,.15-13.49,0-5.15-.17-7-2.8-7-9.81-.07-5.83,2.12-9.12,6.8-9.16q27.74-.22,55.46,0c4.56,0,6.48,3.11,6.48,9.32s-2.28,9.48-6.87,9.69a104.1,104.1,0,0,1-13,0c-4.18-.34-5.63.64-5.56,5.29.32,19.65.14,39.3.13,59,0,6.84-2.08,8.92-8.8,8.91-8.56,0-9.92-1.23-9.92-9q0-14.73,0-29.48Z"/><path class="cls-1" d="M503.77,230.28c0,9.15-.12,18.31.07,27.47.07,3.42-.7,6.05-3.5,8.24-4.32,3.36-8.32,7.15-12.7,10.45a6.4,6.4,0,0,0-2.78,5.87c.11,11.66-.26,23.33.18,35,.21,5.41-2.59,8.16-6.31,10.93-2.18,1.62-5.92,2.51-5.67,5.73.47,6.17-3.52,12.37.32,18.49,2.31,3.66,3.36,7.62,1.31,11.82-1.94,4-5.13,5.86-9.59,5.9a9.35,9.35,0,0,1-9.18-5.61c-2.07-4.2-1.51-8.68,1.66-11.51,3.37-3,3.94-6.5,4.75-10.38,5.72-27.4,12.49-54.55,19.66-81.6,3.85-14.57,7.46-29.2,11.08-43.83,1.37-5.56.42-11.26.49-16.89,0-3.36.66-6.27,4.67-6.17,3.68.1,5.63,2.28,5.61,6.16-.06,10,0,20,0,30Z"/><path class="cls-1" d="M260.86,370.18c-5.79,0-11.07-6.14-8.06-12.63,3.54-7.65,2.94-15,2-22.72-.59-4.85-4.52-6.86-7.54-9.36-2.81-2.33-3.59-4.66-3.53-8.08.18-10.65-.1-21.31.14-32,.08-3.72-1.05-6.36-3.93-8.57s-5.61-4.68-8.41-7c-4.66-3.87-7.2-8.24-7-14.9.51-18.13.14-36.28.08-54.43,0-3.48.45-6.51,4.89-6.46,3.44,0,5.38,3,4.71,7.11-1.82,11.23,1.79,21.74,4.5,32.29,8.05,31.4,16.57,62.67,24.48,94.1,1.38,5.52,3,11.19,2.9,17a8.49,8.49,0,0,0,3.36,7c4,3.41,4.24,8.13,2.37,12.8C270.13,368.58,266.68,370.29,260.86,370.18Z"/><path class="cls-1" d="M291,226.59q0-30.22,0-60.45c0-2.8-.46-4.66,3.86-3.28,4.69,1.5,9.91.73,14.88.31,1.64-.14,2.16-.06,2.5,1.82a205.79,205.79,0,0,1,3.47,45.54c-.23,5.89-2.74,11.15-4.08,16.73C306.69,247.72,301,268,294.94,288.12c-.46,1.52-.5,4-2.43,3.67-2.17-.33-1.12-2.78-1.13-4.26-.07-20.31-.05-40.63-.05-60.94Z"/><path class="cls-1" d="M436.77,162.05v5.73q-.11,59.67-.25,119.34c0,1.4,1.23,3.78-1.3,4.08-2.26.26-2.14-2.29-2.57-3.64-7.63-24.05-15-48.29-19.69-73-2.83-14.76-1-30.31,1.82-45.49,1.12-6.11,3.35-6.5,8.24-5.93A34.73,34.73,0,0,0,436.77,162.05Z"/><path class="cls-1" d="M457.09,162.26c7.29,2,14.53,1,21.67.86,1.43,15.89,2.53,31.83,1.53,47.76-.62,10.05-4.1,19.68-6.6,29.41-4.16,16.19-8.83,32.26-13.38,48.36-.35,1.26-.14,3.63-2.23,3.27-1.88-.33-1.23-2.46-1.24-3.85q-.06-61.95,0-123.91A12.67,12.67,0,0,1,457.09,162.26Z"/><path class="cls-1" d="M293.93,356.23c-.07-8.93,3.27-17.17,5.34-25.65,8.51-34.94,17-69.89,26-104.7A86,86,0,0,0,328,201.27c-.13-4,1.13-7.14,5.65-7.1s5.08,3.18,5.06,7q-.13,28.5,0,57a9.45,9.45,0,0,1-3.47,7.88c-4.21,3.51-8.36,7.12-12.77,10.36a5.9,5.9,0,0,0-2.62,5.44c0,11.83-.3,23.66,0,35.48.15,4.89-1.66,8.32-5.61,10.19-4.68,2.2-6.75,5.64-7.06,10.46-.4,6.27-3,12-4.41,18Z"/><path class="cls-1" d="M247.52,162.29a51.53,51.53,0,0,0,18.67.9c3.7-.42,4.66.34,4.63,4.2-.2,33.47-.16,66.94-.18,100.41,0,7.79,0,15.58,0,23.28-2.52.66-2.49-1.22-2.8-2.27-7.29-24.38-14-48.91-20-73.66-.64-2.66-.33-5.57-.33-8.37C247.5,192.14,247.52,177.5,247.52,162.29Z"/><path class="cls-1" d="M601,285v6.12l-1.67.22c-2-6.16-4.13-12.25-5.83-18.48-5.06-18.49-10.7-36.86-14.61-55.6-3.09-14.81-2.17-30,1.63-44.83.79-3.08-.63-7.43,2.2-9,2.42-1.32,6.16-.21,9.32-.23,3,0,7.2-1.33,8.61.12,2.09,2.15.77,6.32.76,9.62q-.14,54.66-.39,109.32C601,283.15,601,284.06,601,285Z"/><path class="cls-1" d="M128.59,291.62c-1.9-1.3-1.16-3.13-1.17-4.67q-.06-60.43-.07-120.87c0-2.92-.18-4.76,4-3.27s8.84,1.18,13.31.3c1.35-.26,2.48-1.07,2.87,1.65,2.14,14.91,4.12,29.77,3.62,44.94-.25,7.8-2.79,14.88-4.55,22.21-4.71,19.61-11.11,38.75-16.69,58.12C129.7,290.62,129.82,291.38,128.59,291.62Z"/><path class="cls-1" d="M424.61,356.11c-1.22-5.66-3-11.28-3.52-17-.62-6.3-3.77-10.5-8.75-13.63-2.91-1.82-3.82-4.15-3.77-7.48.18-10.66.1-21.32.07-32,0-4.43-.54-8.68-5.19-10.95-.43-.22-.72-.72-1.14-1-13.08-7.46-14.85-19.34-13.38-32.86s.43-26.95.61-40.43c0-3.47.39-6.51,4.69-6.76,3.64-.2,5.82,2.47,5.42,7.12-1.31,14.87,3.12,28.79,6.79,42.85q11.16,42.81,22.29,85.61c2.28,8.81,5,17.54,5.82,26.67C431.22,357.07,427.93,355.89,424.61,356.11Z"/><path class="cls-1" d="M128.54,355.93c-.5-10,3.4-19.16,5.86-28.54,9.55-36.54,20.08-72.83,28.93-109.56,1.38-5.71.69-11.62.4-17.42-.2-3.84,1.19-6.72,4.87-6.65,3.34.06,5.23,2.56,5.19,6.53-.19,19.32-.17,38.65-.09,58a7.58,7.58,0,0,1-2.66,6.11,92.3,92.3,0,0,1-12.5,9.9,7.43,7.43,0,0,0-3.67,7.05c.14,12.16-.15,24.32,0,36.48.07,4-1.11,7.15-4.53,8.69-7.12,3.22-8.62,9.41-9.69,16.15-.75,4.73-1.58,9.49-4,13.77C134,355.33,131.26,356.2,128.54,355.93Z"/><path class="cls-1" d="M590.64,356c-1.21-5.48-2.94-10.91-3.49-16.46a16.41,16.41,0,0,0-8.29-13.21c-4.41-2.67-5.47-6.35-5.45-11.28.07-12.12-.45-24.25-.65-36.38a6.23,6.23,0,0,0-2.4-5.12c-3-2.58-6-5.3-9.12-7.64-5.64-4.22-6.8-9.34-6.65-15.95.37-16.47.19-33,0-49.43-.05-3.8,1.27-6.23,4.84-6.93,2.62-.52,5.79,3.5,5.32,6.94-1.77,12.92,2.4,24.91,5.58,37.05q9.63,36.7,19.38,73.37,5.28,19.9,10.63,39.79a13.1,13.1,0,0,1,.37,5.42Z"/><path class="cls-1" d="M303.92,626.11c0,12.65,0,25.3,0,38,0,5.87-2.19,8-8,8-9.82,0-10.87-.92-10.87-10.7q0-36.71.19-73.42c0-6.25,1.8-7.62,8-8,10.4-.69,11,2.75,10.93,10.69,0,11.82,0,23.65,0,35.47Z"/><path class="cls-1" d="M105.5,626c0-12.66-.07-25.32,0-38,.06-7.15,1.92-8.35,12-8.25,4.7,0,6.33,2.33,6.33,8.52q0,37.49,0,75c0,7.56-1.58,9-10.14,9-6.56,0-8.49-2.1-8.49-9.23V626Z"/><path class="cls-1" d="M172.75,423.07v36a18.65,18.65,0,0,0,1.16,7.79c1.37,3.15,0,5.91-2.58,7.84-2.73,2.06-5.73,1.77-8.28-.37s-3.17-5-1.64-7.66c1.33-2.37,1.42-4.7,1.42-7.19,0-21.31,0-42.62.07-63.94,0-3.32-.13-5.95-3.83-7.72-2.52-1.21-3.73-4.18-2.72-7.34a8,8,0,0,1,7.27-5.95,7.94,7.94,0,0,1,7.82,4.38,12.16,12.16,0,0,1,1.4,6.23c-.08,12.65,0,25.31,0,38Z"/><path class="cls-1" d="M398.38,375.12c4.08-.33,6.31,2.09,7.1,5.57.71,3.08.89,6.46-3.28,7.73-2.11.64-2.55,2.21-2.54,4.26q.12,33.92.09,67.84c0,2,1,3.42,1.6,5.11,1.19,3.32,1,6.69-2.15,9a6.47,6.47,0,0,1-8.34-.2c-2.85-2.3-4.05-5.36-2.2-8.83a12.6,12.6,0,0,0,1.1-6.28q0-32.43,0-64.86a44.1,44.1,0,0,0-.64-8.4A9.12,9.12,0,0,1,398.38,375.12Z"/><path class="cls-1" d="M337.64,422.05q0,18,0,36c0,3-.16,5.78,1.52,8.64s-.38,5.63-2.49,7.46a6.74,6.74,0,0,1-8.35.58,5.56,5.56,0,0,1-2.37-7.41c2.4-5,1.66-10.09,1.69-15.17.08-18.81,0-37.62,0-56.43,0-2.77-.19-5.05-3-6.79-3.73-2.32-3.78-6.07-2.2-9.73,1.77-4.08,5.45-4.82,9.25-4s6.07,3.35,6.07,7.44q0,19.72,0,39.45Z"/><path class="cls-1" d="M224,469.12c1.14-28.53.51-57.12.63-85.69,0-4.33,2-7.47,6.28-8.38,3.88-.83,7.51.29,9.23,4.14s1.22,7.58-2.94,9.86c-2,1.11-2.55,2.69-2.55,4.9q0,33.45-.16,66.89a10.88,10.88,0,0,0,1.48,5.69c1.56,2.71.8,5.27-1.1,7.35a6.08,6.08,0,0,1-7.3,1.53C224.88,474.25,223.37,472.25,224,469.12Z"/><path class="cls-1" d="M565.43,375.28a7.17,7.17,0,0,1,6.82,5.71c.93,3.55-.11,6.34-3.6,7.72-2.48,1-3,2.64-2.95,5.06q.1,33.21,0,66.43c0,2.46,1.08,4.46,1.71,6.67.76,2.63.72,5.31-1.84,7.23-2.31,1.73-4.73,2.41-7.4.78s-4.37-3.85-3.63-7c2.36-10.05,1-20.22,1.13-30.33.26-15.31,0-30.63,0-46a41.3,41.3,0,0,0-.15-5C554.66,379.29,557.9,375.36,565.43,375.28Z"/><path class="cls-1" d="M503.83,422.57c0,11.82,0,23.65,0,35.47,0,2.95-.1,5.78,1.48,8.66,1.49,2.69.2,5.64-2.28,7.5s-5.52,2.48-8.34.44-4.07-4.64-2.46-7.8c1.51-3,1.56-6.06,1.56-9.23,0-21-.09-42,0-62.94,0-2.5-.37-4.44-2.69-5.88-3.43-2.12-4.7-5.29-2.76-9,2-3.85,5.53-4.83,9.74-4.06s5.92,3.36,5.92,7.35c0,13.15,0,26.31,0,39.46Z"/><path class="cls-1" d="M358.08,148.41c0-6.32-.28-12.64-.06-18.95.13-3.73-1.13-5.47-4.9-5.87-7.16-.76-12.62-4.71-17.24-9.94-1.3-1.48-4.26-3.55-2.29-5.05,2.35-1.78,5.38-5.08,9.23-2.22a56.49,56.49,0,0,0,6.63,4.35,31.34,31.34,0,0,0,33.67-3.17c2.55-2.09,9.94-1.39,11.93,1.14.89,1.14-.19,1.75-.72,2.51-5,7.21-12.17,11.18-20.61,12.81-3.59.7-5.11,2-5.5,6-.57,5.81.12,11.63-.72,17.4A15.93,15.93,0,0,0,358.08,148.41Z"/><path class="cls-1" d="M192.74,147.94c.08-6.11,0-12.22.27-18.33.12-3.36-.34-5.34-4.51-5.94-8.24-1.19-14.29-6.48-19.94-12.25-1.93-2-1.49-2.68.88-3.68,4.46-1.88,8.38-2.81,12.51,1.17,7.3,7,26.72,7.19,35.1-1.17,2.74-2.73,9.35-2.11,12.06.68,1.46,1.51.15,2.47-.68,3.34-6.14,6.33-13.13,11.33-22.18,12.27-3,.32-3.43,1.63-3.4,4.15.05,6.66-.09,13.32-.15,20Z"/><path class="cls-1" d="M525.51,147.79c0-6.33-.07-12.66,0-19,.05-2.92-.7-4.52-4-5-8.83-1.26-15.56-6.28-21.39-12.75-1.57-1.74-1.89-2.76.93-3.09a5.36,5.36,0,0,0,2.76-.86c3-2.54,5.1-1.31,7.8.8,8.39,6.57,17.87,7.91,28.1,5.1,3.36-.92,6-3.07,8.51-5,3-2.38,5.15-2.7,8.19-.69,1.47,1,3.31,1.39,5.3,2.18-6.4,7.84-14,13.17-23.79,14.63-2.77.41-3.15,1.66-3.13,3.93.07,6.66,0,13.33,0,20Z"/><path class="cls-1" d="M399.42,517.27c.34,8.65-6.29,15.37-15.54,15.75-8.76.36-15.09-5.52-15.49-14.4a15.58,15.58,0,0,1,15.09-16.37A15.79,15.79,0,0,1,399.42,517.27Z"/><path class="cls-1" d="M219.76,502.41a15.08,15.08,0,0,1,15.1,14.67,15.34,15.34,0,0,1-15.45,16c-8.48.14-15.06-6.25-15.36-14.89S210.75,502.59,219.76,502.41Z"/><path class="cls-1" d="M524.65,517.49c.08,9-6.15,15.43-15.18,15.61a15.34,15.34,0,0,1-15.88-15.51,15,15,0,0,1,15.25-15C517.68,502.47,524.58,509,524.65,517.49Z"/><path class="cls-1" d="M550.38,533.11c-9.38,0-14.88-5.81-14.8-15.51.08-8.79,6.8-15.55,15.39-15.44s15,7,14.92,16.35C565.8,526.93,559.19,533.15,550.38,533.11Z"/><path class="cls-1" d="M327.32,517.92c-.35-8.32,6.2-15.15,15-15.69,8-.48,15.13,6.76,15.33,15.57s-6.08,15-15.41,15.25C334.19,533.3,327.69,526.72,327.32,517.92Z"/><path class="cls-1" d="M193.13,517.94c.08,9.09-6,15.07-15.41,15.08-8.61,0-14.3-5.92-14.39-15-.09-8.38,6.33-16,14.13-15.77C186,502.52,192.77,507.13,193.13,517.94Z"/><path class="cls-1" d="M128.54,355.93c2.72.27,5.5-.6,8.17.48,7.34,2.08,12.36,8.71,11.82,15.61-.61,7.63-6.31,13.28-14.27,14.14a14.89,14.89,0,0,1-16-10.61c-2.17-7.52,1.5-15.35,8.94-19C127.61,356.3,128.08,356.13,128.54,355.93Z"/><path class="cls-1" d="M424.61,356.11c3.32-.22,6.61,1,9.94.2a16.15,16.15,0,0,1,10.28,17.31c-1.15,7.08-7.87,12.42-15.74,12.5-7.45.08-13-4.56-14.64-12.19C412.93,366.79,417.24,359.22,424.61,356.11Z"/><path class="cls-1" d="M590.64,356l10.06.17c7.88,3.75,11.74,12.52,8.87,20.17s-10.68,11.13-19.12,8.82c-6.41-1.76-9.55-6.31-10.34-12.57-.77-6.09,1.69-10.94,6.66-14.47A38,38,0,0,1,590.64,356Z"/><path class="cls-1" d="M293.93,356.23l8.91-.32c9.65,5.28,13.17,13.5,9.16,21.37a15.66,15.66,0,0,1-17.81,8.36,14.66,14.66,0,0,1-11.33-13.86C282.54,364.28,286.63,358.53,293.93,356.23Z"/><path class="cls-1" d="M588.23,150.13c-8.54-.14-13.76-5.63-13.61-14.29.15-8.26,6.27-14,14.84-13.91s14.25,6.36,14,15.28C603.16,145.13,597.1,150.28,588.23,150.13Z"/><path class="cls-1" d="M470.66,150.17c-7.94-.06-13.36-5.32-13.35-12.93,0-9.52,5.55-15.69,14.14-15.73,8.15-.05,14,6.08,14.09,14.72C485.61,144.27,479.25,150.23,470.66,150.17Z"/><path class="cls-1" d="M153.82,136.91c1.53,7.69-7.14,13.72-13.72,13.68-8.91-.06-14.61-5.9-14.5-14.7.11-8.3,6.15-14.23,14.55-14.3C148.24,121.53,153.84,127.8,153.82,136.91Z"/><path class="cls-1" d="M304.13,121.76c8.14-.05,14.35,6.13,14.51,14.46.15,7.84-6.13,13.92-14.34,13.9-7.84,0-14-5.63-14.12-13C290,128.38,295.93,121.82,304.13,121.76Z"/><path class="cls-1" d="M408.71,135.6c0-8.07,5.69-13.95,13.57-14.06,8.16-.12,14.48,6.39,14.51,15,0,8.29-5.59,13.71-14.23,13.72S408.7,144.61,408.71,135.6Z"/><path class="cls-1" d="M256.43,150.19c-8.11,0-13.69-5.5-13.82-13.7-.13-8.44,5.55-14.8,13.29-14.9a14.28,14.28,0,0,1,14.84,14.67C270.64,144.4,264.73,150.16,256.43,150.19Z"/><path class="cls-1" d="M164.57,332.9c2.73.14,5.49.18,8,1.61,6.82,7.75,6.36,16.92-1.06,21-4.27,2.36-10.5,1.92-14.06-1-4.24-3.5-4.83-8.17-3.78-13.11S158.82,333.54,164.57,332.9Z"/><path class="cls-1" d="M225.06,334.35c2.91-.66,5.75-1.67,8.8-1.56C242,335,246,340.35,244.65,347.2a12.36,12.36,0,0,1-13.21,9.59c-4.84-.51-8.61-3-10.19-7.57C219.3,343.66,220.72,338.52,225.06,334.35Z"/><path class="cls-1" d="M495,332.3a27.2,27.2,0,0,1,8.21,2.14c4.61,4.07,5.76,9.12,3.78,14.78-1.72,4.91-5.55,7.22-10.66,7.42a11.46,11.46,0,0,1-11.91-9.08,12.53,12.53,0,0,1,7.37-14.23C492.81,332.92,494.14,333.39,495,332.3Z"/><path class="cls-1" d="M329.64,333l8,1.21c3.65,3.86,6.29,7.94,4.53,13.7-1.83,6-6.34,9.46-12.46,9-5.42-.36-10.46-4.79-11-9.69-.79-6.8,2.31-11.75,8.56-13.62C328.05,333.39,328.85,333.19,329.64,333Z"/><path class="cls-1" d="M555.22,334.65c2.61-1.81,5.7-1.45,8.61-1.87,8.31,1.66,12.47,7.22,11,14.64-1.32,6.55-7.46,10.36-14.71,9.07-6.93-1.24-12.28-9.78-7.1-19.21A17.76,17.76,0,0,1,555.22,334.65Z"/><path class="cls-1" d="M389.73,334.88a17.39,17.39,0,0,1,9-2c7,2.17,10.55,6.6,10.36,12.78-.16,5.36-4,9.55-9.89,10.83a10.14,10.14,0,0,1-10.33-3.33,12.71,12.71,0,0,1-2.62-13C386.94,338.17,387.76,336.1,389.73,334.88Z"/><path class="cls-1" d="M358.08,148.41a15.93,15.93,0,0,1,9.42-1c7.4,5.2,9.7,10.62,7,16.5-2.42,5.3-7.25,6.75-12.31,6.85s-7.62-3.65-9.45-7.73-.35-9.77,3-12.79C356.46,149.58,357.29,149,358.08,148.41Z"/><path class="cls-1" d="M525.51,147.79l9.33.22c4.62,3.66,8.35,7.72,6.15,14.28a12.66,12.66,0,0,1-12,8.77c-4.65-.06-9.25-3.94-10.61-9s.85-10.17,5.48-13.17C524.46,148.58,525,148.17,525.51,147.79Z"/><path class="cls-1" d="M192.74,147.94l10,.21c5.91,3.85,8.42,9.44,6.55,14.57-2,5.5-7,8.26-13.56,7.56s-11.2-8.18-8.87-14.45C188,152.61,189.14,149.35,192.74,147.94Z"/><path class="cls-1" d="M71.7,699.77c5.23.16,7.19,2,7.07,5.64-.13,3.89-2.27,6.29-6.14,6.44-3.67.15-5.52-2.41-5.4-5.73C67.36,702.56,68.91,699.63,71.7,699.77Z"/><path class="cls-1" d="M130.87,705.43c0,3.8-2,6.13-5.61,6.14-3.28,0-5.55-1.92-5.55-5.63s2-6.33,5.43-6.54S130.83,701.62,130.87,705.43Z"/><path class="cls-1" d="M602.09,711.05c-2.31-.29-3.93-2.58-4-5.94,0-3,3.69-6.48,6.33-5.78a6.36,6.36,0,0,1,4.92,6.67C609.35,709.3,606.68,711.42,602.09,711.05Z"/><path class="cls-1" d="M655.06,711.17c-2.94-.08-4.59-2.08-4.46-5.68s1.77-5.65,5.46-5.57c3.52.07,5.66,2,5.66,5.51C661.72,709.09,659.72,711.25,655.06,711.17Z"/><path class="cls-1" d="M601,285c0-.91,0-1.82,0-2.73A1.9,1.9,0,0,1,601,285Z"/></g></g></svg>