<svg xmlns="http://www.w3.org/2000/svg" viewBox="0 0 643.16 825.97"><defs><style>.cls-1{fill:#fff;}</style></defs><g id="Layer_2" data-name="Layer 2"><g id="Layer_1-2" data-name="Layer 1"><path class="cls-1" d="M31.45,390.24c-4-2.87-7.51-4.85-10.33-7.58-4.47-4.33-4.36-8.86-.35-13.64,4.38-5.24,3.83-11.82-1.83-16.18-3.54-2.72-7.58-4.79-11.45-7.07-8.84-5.23-9.64-10.4-3.54-18.66,7.7-10.44,15.22-21,22.4-31.84a39.62,39.62,0,0,0,6.22-27.74c-6.1-45.23,8.62-84.08,36.31-118.85,36.21-45.47,81.3-79.5,134.7-102.31,24.86-10.62,50.62-18.73,77.61-21.82,6.2-.71,9.49-2.67,12.71-8.24C300.3,5.25,310.5-1,323.81.13c12.47,1,21.54,7.42,26.58,19,1.09,2.5,2.25,3.81,5.26,4.21,32.79,4.34,64.06,14.14,93.92,28.07C480.62,65.9,507.91,86,533,109.31c22.25,20.67,41.86,43.38,57,69.8,17.28,30.24,25.69,62.54,20.65,97.37-2.6,18,1.83,33.58,11.89,48.13q8.94,12.94,17.72,26c5.25,7.81,3.5,13.51-5.16,17.51-4.38,2-8.91,3.82-13,6.29-6.58,3.94-8.45,12.36-3.41,18.06,5.74,6.5,4,13.54-4.21,17.86-2.17,1.14-4.26,2.46-6.66,3.85,1.32,1.45,2.34,2.5,3.28,3.63,5.57,6.62,4.43,13.63-2.9,18.06-.86.52-1.74,1-2.61,1.48-6.52,3.63-7.1,5.17-4.71,12.44,6.38,19.47-4.93,37.32-25.39,40.13-12.17,1.68-23.83-1.17-35.59-3.57a222.39,222.39,0,0,0-22.61-3.72c-16.26-1.6-29.89,4.17-40.41,16.51-18,21.06-32,44.56-42.93,70-12.17,28.27-18.62,57.58-18,88.42.2,9.67,0,19.34,0,29a22.93,22.93,0,0,1-.61,5.42c-.81,3.21-2.77,5.38-6.33,5.29s-5.87-2.28-6.63-5.7a29.58,29.58,0,0,1-.34-6c-.32-16.32-.05-32.67-1.06-48.94-1.32-21.31-10.71-40-20.77-58.35-12.87-23.43-28.21-45.19-44.81-66.1-1.8-2.27-4-4.25-7.11-7.54V512q-.06,87-.11,174a27.55,27.55,0,0,1-.32,6c-.78,3.45-3.13,5.67-6.73,5.55s-5.75-2.42-6.22-6a39.5,39.5,0,0,1-.15-5q-.07-87.24-.13-174.49v-6.81c-2.26,2.48-3.63,3.94-5,5.45-21.49,24.31-40.37,50.51-55.47,79.24-10.76,20.46-17,42.28-17,65.64,0,10.67-.17,21.33-.27,32a18.79,18.79,0,0,1,0,2.49c-.54,4-2.48,7.22-6.8,7.33s-6.6-3.08-6.88-7.12c-.35-5,0-10-.2-15-.83-19.44-.18-39.12-3-58.28-5.57-37.82-21-72.47-39.31-105.69a331.8,331.8,0,0,0-24.7-37.46c-11.6-15.59-27.45-21.4-46.75-17.5-11.25,2.27-22.55,4.31-33.89,6a44.12,44.12,0,0,1-23.56-2.75c-14-5.65-20.4-19.7-15.54-33.84,2.71-7.88,2.65-8-4-12.65a30.56,30.56,0,0,1-5.08-4c-4.57-4.85-4.22-11,.68-15.45ZM556.31,252.51c6.62.85,12.91,1.48,19.13,2.52a58.52,58.52,0,0,1,11,3c3.73,1.43,5.4,4.52,4.14,8.47-1.18,3.69-4,5.16-7.85,4.49-1.8-.32-3.54-1-5.34-1.26q-10.83-1.65-21.7-3.15c-2.6-.35-4.25.46-5.11,3.37-1.86,6.33-4.15,12.54-6.29,18.86,8.31,6.23,16.13,12.69,27.33,7.33,4.71-2.25,9.37-.54,11,3.44,1.4,3.55-.58,7.14-5.41,9.29-10.86,4.82-21.37,4.19-31.4-2.31-2.08-1.35-4-2.87-6.26-4.45a30.32,30.32,0,0,0-2.25,3.53,388,388,0,0,1-56.81,90.17c-5.87,7-10.09,15.07-10.2,24.45-.19,14.73,8.39,24.36,19.82,32,16.89,11.35,36,17,55.53,21.61,9.9,2.32,19.87,4.57,30.1,2.06,11.39-2.78,16-11.44,12.12-22.3-.4-1.09-.8-2.19-1.15-3.3-2.86-9.09-.29-16.35,7.64-21.65,1.59-1.06,3.17-2.14,4.76-3.22-.07-.49-.15-1-.22-1.48-4-.28-8-.51-12-.86s-8.44-.54-9.44-5c-1.08-4.78,3.69-6.13,6.88-7.93,7.36-4.15,14.86-8.07,22.29-12.07-8.42-16.51-4.51-28.54,11.71-37,2.93-1.53,5.86-3,9-4.67-5.51-8.14-10.75-16-16.14-23.8-12.4-17.91-17.2-37.39-14.12-59.18,4.48-31.77-3.45-61.14-19.29-88.61-3-5.23-6.54-10.16-9.91-15.36-1.07,14.3-1.41,28.11-3.32,41.71C562.64,225,559.17,238.6,556.31,252.51ZM171.1,405.69C136,368.84,113.53,326.21,97.47,279.6c-.93.66-1.7,1.26-2.51,1.81-9.75,6.47-19.95,6.91-30.33,1.87-3.62-1.75-6.58-4.66-4.63-9.18s5.77-3.53,9.43-2.3c8.27,2.78,15.87,1.67,22.13-4.62a8.19,8.19,0,0,0,1.92-5.86c-.36-3.78-2.21-7.47-2.25-11.21,0-5.06-2.5-5.78-6.57-5.33-8.24.91-16.5,1.74-24.76,2.6-3.71.38-7.3.08-8.45-4.22s1.53-6.66,5-8.08a29.33,29.33,0,0,1,8.14-2.2c7.72-.8,15.47-1.26,23.62-1.88-3.53-31.43-3-62.32,7.45-92.56a222.76,222.76,0,0,0-14.84,16.85c-14,17.64-25.16,36.78-31.37,58.6-4.5,15.8-5,31.86-3.53,48.06a71.37,71.37,0,0,1-13,49.12c-5.33,7.6-10.71,15.18-16.3,23.1,3.21,2.25,6.91,4.74,10.49,7.4,9,6.68,11.85,15.28,8.67,25.93a56.73,56.73,0,0,1-2.34,5.64c1.92,1.39,3.6,2.73,5.39,3.89,6,3.87,12.22,7.49,18,11.65,1.72,1.22,3.52,4.13,3.2,5.9s-3,3.61-5.07,4.42c-2.22.88-4.91.53-7.38.86s-5,.85-8.65,1.5c2.43,1.68,3.66,2.47,4.83,3.35,7.69,5.79,9.8,12.89,6.59,22-.5,1.41-1,2.81-1.47,4.24-2.2,7.4,1.74,14.76,9.24,16.68A35.06,35.06,0,0,0,68,448.81c29.86-1.21,57.86-9.09,83.09-25.18C158.44,418.92,164.33,411.85,171.1,405.69ZM456.24,104a122.91,122.91,0,0,0-24.78-34.9C410.65,48.51,384.65,40,356.24,37.18c-3.07-.31-3.72,1.19-4.55,3.81-3.7,11.75-11.06,20.12-23.5,22.83-12,2.62-22.18-1.25-29.9-10.55-3.75-4.5-6.32-10-9.67-15.43-21.64-1.07-53.12,8.89-70,23.23C206.94,71,196.59,82.31,189.06,96.53c50.54,4.89,93.47,25.91,133.09,54.58C362.51,123.17,406.82,107.51,456.24,104Zm95.14,110-1.84-.67c-2.15,2.47-4.25,5-6.45,7.39-16.45,18.09-37.43,28.42-60.43,35.34-1.93.58-4.39,2-5,3.69-2.91,7.42-5.11,15.12-7.88,22.59-1.13,3-1,4.8,1.66,7.16,9.38,8.46,11.56,23.35,5.6,35a28.18,28.18,0,0,1-31.12,14.47c-3-.65-4.4.16-6.16,2.46-7.27,9.51-14.24,19.36-22.38,28.09-17.89,19.17-38.69,34.21-64.66,40.59-7.86,1.93-16,2.83-24.31,4.26,0,12,0,24,0,35.92,0,.77.26,2.07.7,2.22,6.43,2.14,10.83,9.64,19.33,6.6,6.7-2.4,13.92-3.34,20.7-5.58,41.2-13.63,75.48-37.71,103.52-70.5a335.12,335.12,0,0,0,67.23-123.18C544.37,244.74,547.58,229.29,551.38,214ZM429.93,331.54c-14.66-27.51-4.85-46.66,25.8-50,1.31-3.3,2.69-6.68,4-10.09s2.45-6.7,3.76-10.32a11.26,11.26,0,0,0-2.2-.18Q402.35,271.3,348.51,245.2c-5-2.45-9.33-4.69-13.46,1.05a4.92,4.92,0,0,1-2.5,1.59c-3.79,1.1-4.3,3.73-4.29,7.28q.09,69.94-.05,139.9c0,1.58.21,3.15.31,4.68C365.71,400.06,401.92,373.78,429.93,331.54ZM168.41,110.37c-12.69.45-24.35,1.79-35.53,6-9.45,3.57-16.93,9.54-20.74,19-3.15,7.85-6.48,15.85-8,24.1-9.33,50.5-1.75,99.09,17.76,146.13a6.2,6.2,0,0,0,4.38,3c18.5,1.72,36.93,1.36,55.25-2.13,3-.58,4.37-1.69,5.11-4.83a23.47,23.47,0,0,1,4.5-9.23c2-2.43,1.84-4.16.69-6.67-4.23-9.22-8.69-18.36-12.34-27.82-10.64-27.64-18.36-56-19.55-85.81C159.1,151.39,160.92,130.92,168.41,110.37Zm142.14,47.88c-15-8.59-28.93-17.4-43.57-24.78-25-12.59-51.1-21.81-79.38-23.58-3.63-.23-5.13.76-6.37,4.25-8.39,23.62-9.51,47.88-6.72,72.47,3.38,29.74,13.09,57.65,25.24,84.81,1.92,4.3,4,8.52,6.41,13.48C224.71,229.15,263.78,191.53,310.55,158.25Zm-169,287.34c11.57,4.37,20,12.06,26.86,21.5a392.49,392.49,0,0,1,59.48,122.43c1.48,5.12,2.74,10.31,4.35,16.45,16.68-42.76,44.48-77,70.67-109.9l-7.33-23c-42.77-8.57-81.38-28.79-114.47-58.53-6.16,5.87-11.78,12.07-18.26,17.17S149.07,440.76,141.54,445.59Zm206.2,27.24c-2.7,8.21-5.05,15.34-7.69,23.38C366.42,529,391.61,564,407.67,605a33.28,33.28,0,0,0,2.33-6.63c9.72-37.45,27-71.11,50.77-101.53,8.73-11.19,19.11-20.4,32.78-25.28.18-.06.21-.54.44-1.18-10.05-4.88-19.19-11-26.42-19.82s-11-19.06-11.41-31.53a242.67,242.67,0,0,1-51.63,34.11A233.33,233.33,0,0,1,347.74,472.83ZM322.88,166.29c-3.62,2.6-6.95,5.11-10.38,7.44a287.12,287.12,0,0,0-52.16,45.64c-17.2,19.13-30.8,40.55-39.56,64.85-.57,1.6.05,4,.89,5.67,1.39,2.73,3.52,1.18,5.51.33,24.81-10.69,46-26.57,65.68-44.85,4.59-4.26,6.72-7.42,4.15-14.19-3.73-9.8-.78-19.13,7.16-26.28s17.06-9.05,26.87-4.63c9.63,4.35,15.07,12,14.92,22.8-.06,3.66,1,5.89,4.21,7.4,2.41,1.11,4.6,2.7,7,3.82,34.25,15.88,70,19.41,106.86,12.43a6.78,6.78,0,0,0,4.41-4.18c2.19-10.08,4-20.24,5.71-30.41.52-3,.52-6.09.79-9.49C418.52,212,368.78,196.42,322.88,166.29Zm-8.1,234.32c0-2.89,0-4.52,0-6.14q0-28.74,0-57.47c0-27.48.1-55,0-82.45,0-1.6-1.06-4-2.31-4.58s-3.42.41-5,1.16a16.63,16.63,0,0,0-3.39,2.93c-21.65,19.79-45.3,36.58-72.31,48.38-1.3.57-2.31,2.4-2.92,3.87-1.78,4.26-2.8,8.91-5.1,12.84-1.42,2.43-1.64,3.92-.16,6.09,7.13,10.42,13.79,21.2,21.39,31.26,12.76,16.91,28.7,30.14,48.66,37.85C300.2,396.89,307.17,398.39,314.78,400.61ZM208.3,327.54c-1.42,4.55-2.43,7.53-3.28,10.55-5.75,20.5-11.52,41-17.06,61.55-.35,1.33.79,3.66,2,4.71,31.34,27.95,67.18,47.06,108.69,54.89,2.1.39,14.79-5,15.76-6.78a4.24,4.24,0,0,0,.27-1.93c0-12.14,0-24.28,0-36.68-1.72-.34-3.33-.69-4.95-1a110.12,110.12,0,0,1-41.11-16c-21.12-13.75-36.38-33-50.27-53.5C215.1,338.59,212.14,333.62,208.3,327.54ZM336,157.13l-.06,2.17c11.56,5.81,22.87,12.22,34.73,17.33,32,13.81,65.42,18.61,100.09,13.28,2.94-.45,4.72-1,4.7-4.77-.12-20.63-2.92-40.74-9.68-60.35-1.94-5.64-4.62-7.16-10.32-7-30.27,1-58.82,8.74-86,21.8C358.12,145.09,347.13,151.28,336,157.13Zm153,28.11a27.14,27.14,0,0,0,4.17-.57c21.18-6.52,38.49-18.47,51.66-36.42,3-4.13,2.06-6.61-1.66-9.38a95.45,95.45,0,0,0-34.63-16.05c-9.91-2.43-20.08-3.83-30.13-5.69l-1,1.46C486.09,139.9,488.38,162.29,489,185.24ZM130.28,323.1a295.83,295.83,0,0,0,46.46,68.73c.89-2.63,1.68-4.58,2.21-6.6,5-19,9.79-38.05,14.8-57,1.64-6.24-2.2-10.63-8.56-9.25a177.72,177.72,0,0,1-44.65,4.18C137.41,323,134.26,323.1,130.28,323.1Zm353.6-82.49c33.07-7.12,70.75-40.89,68.55-80.3-1.08.67-1.54,1.93-2.31,2.95-9.75,13-22.52,22-37.42,28-6.91,2.82-14.07,5-21,7.84-1.47.59-3.33,2.3-3.51,3.69C486.57,215.32,485.29,227.84,483.88,240.61ZM321.55,13.79c-10.28,0-18.46,8.33-18.47,18.9A17.81,17.81,0,0,0,321,50.39a18.68,18.68,0,0,0,18.64-18.32C339.8,22.48,331.25,13.82,321.55,13.79Zm190.12,94.66c-19.17-16.78-39.22-31.4-61.57-41.54,6.67,11.57,13.39,23.32,20.25,35a4.71,4.71,0,0,0,3.13,1.85C485.94,105.35,498.43,106.84,511.67,108.45ZM436.93,310.7c0,8.86,6.34,15.12,15.16,15.07,8.07,0,14.58-6.87,14.58-15.27,0-7.89-6.74-14.85-14.46-14.9A15,15,0,0,0,436.93,310.7ZM138.52,99.45c11.37-1,21.78-1.77,32.15-3,1.53-.17,3.2-2,4.2-3.42,3.29-4.78,6.13-9.87,9.47-14.61,3.06-4.35,6.55-8.4,9.85-12.58A277.07,277.07,0,0,0,138.52,99.45Z"/><path class="cls-1" d="M519.93,795.82l9.16,15.44c.76,1.29,2.07,2.52,2.19,3.87.23,2.59.78,6.45-.6,7.55-1.81,1.45-5.58,1.52-8.06.74-2-.63-3.69-3.18-5.09-5.18-3.54-5-6.66-10.38-10.33-15.31a7.8,7.8,0,0,0-5.19-2.75c-7.79-.41-7.79-.25-7.79,7.75,0,3.5,0,7-.12,10.49-.12,3.76-2.3,5.9-5.87,6.27-3.86.4-6.37-1.57-7.23-5.37a20.75,20.75,0,0,1-.41-4.46q-.16-27.24-.25-54.48c0-6.68,2-8.82,8.54-8.88,7.33-.07,14.7-.33,22,.36,19,1.82,28.61,21,18,35.67C526.66,790.52,523.36,792.69,519.93,795.82Zm-16.25-31.07c-9.4-.17-9.4-.17-9.45,8.83-.09,14.25.54,14.77,14.77,12.38.33-.06.66-.1,1-.17,5.63-1.38,8.71-5.9,8.17-12-.48-5.54-4-8.73-10-9C506.68,764.68,505.18,764.75,503.68,764.75Z"/><path class="cls-1" d="M425.35,794.41c0,4.93-.28,9.26.19,13.5.12,1.1,2.54,2.72,4,2.78,7.15.28,14.32.1,21.49.12,5.3,0,8.93,2.84,8.76,6.72s-3.83,6.74-8.92,6.74c-10.33,0-20.66,0-31-.06-6.07-.05-8-2-8.07-8.18q-.19-27.24-.22-54.48c0-8.29,1.78-10,10-10,10.17,0,20.33-.1,30.49,0,5.55.05,8.86,3.52,7.73,7.89-1,3.88-4,5.1-7.62,5.12-6.83,0-13.66,0-20.49,0h-5.76V780.8c6.42,0,12.55,0,18.67,0,5.41.05,8.54,2.68,8.44,7-.1,4.11-3,6.55-8.32,6.63C438.54,794.48,432.39,794.41,425.35,794.41Z"/><path class="cls-1" d="M574.76,750.59c7,0,13.12,2.08,17.91,7.34,2.17,2.38,3.51,5.25,1.19,8.08s-5.41,3.83-8.93,1.89c-1.74-1-3.43-2.58-5.25-2.76-3.47-.34-7.5-.89-10.42.49-5.63,2.68-5.22,9.84.42,12.63,3.71,1.84,7.72,3.09,11.6,4.57,12.35,4.7,18.83,14.91,16,25.26-3.39,12.52-15.71,20.41-28.63,17.15-5.36-1.36-10.41-4.9-14.92-8.33-2.73-2.09-4-6-.73-9.23,3-2.91,6.24-2.5,9.41.05,3.58,2.87,7.39,5,12.31,4.41,4.4-.57,7.73-2.54,8.79-6.92s-2.13-6.92-5.45-8.52c-5.09-2.44-10.64-3.92-15.66-6.48-11.32-5.77-14.73-17.58-8.47-28.31C558.59,754,565.64,750.36,574.76,750.59Z"/><path class="cls-1" d="M95.05,817.39c.18,5.93-5.26,9.2-9.5,6.3a17.23,17.23,0,0,1-5.34-6.89c-1.49-3.17-3.37-4.49-6.87-4.34q-8.24.35-16.48,0c-3-.14-4.63,1-5.53,3.73a21.58,21.58,0,0,1-2.12,4.51c-2.42,3.94-6.43,5.5-9.69,3.75-4.26-2.3-3.72-5.82-2.17-9.48,6.35-15,12.75-30,19.09-45,1.56-3.67,2.7-7.54,4.5-11.07,1.05-2,3-3.58,4.61-5.35,1.73,1.79,4.17,3.29,5.08,5.43,7.17,16.82,14,33.78,21,50.68C92.85,812.53,94.17,815.38,95.05,817.39ZM59.46,798.57H72.33l-7-15.77Z"/><path class="cls-1" d="M303.62,750.7c6.74,0,12.84,1.76,17.77,6.58,2.76,2.69,4.21,5.82,1.46,9.27s-5.87,2.58-9.36.79c-3-1.55-6.37-3-9.67-3.24-4.36-.32-7.73,2.17-8.71,6.67s1.59,6.87,5.39,8.35c3.26,1.27,6.5,2.57,9.78,3.76,13.13,4.77,19.4,14.91,16.28,26.35-3.21,11.75-14.71,18.53-27.81,16.25-6.35-1.1-12.33-3.1-16.21-8.79-2-3-2.79-6.09.17-9s6-2.41,8.9,0c4.34,3.64,9.29,5.69,14.76,4a11.46,11.46,0,0,0,6.36-5.33c1.53-3.24,0-6.64-3.28-8.52a65.74,65.74,0,0,0-8.15-3.69c-2-.81-4.12-1.32-6.12-2.13C284,787.4,279,779.21,280.93,768.71S292.35,750.77,303.62,750.7Z"/><path class="cls-1" d="M201,825.85A24,24,0,0,1,184,817.76c-2.57-3-4-6.45-1-9.84s6-1.69,9.43,0a36.13,36.13,0,0,0,11.93,4c4.09.47,7.36-2.11,8.32-6.42s-1.43-7.09-5-8.73-7.47-2.77-11.16-4.25c-12.84-5.13-18.33-14.84-14.77-26,3.89-12.21,15.58-18.71,28.56-15.14,4.31,1.18,8.35,3.91,12.06,6.57,2.85,2,3.48,5.22.93,8.3s-5.32,3.81-8.84,1.91c-2.47-1.35-4.87-3-7.52-3.82-5.23-1.62-10.62,1.08-11.71,5.67-1,4.12.64,7.26,4.55,8.89s8.13,2.91,12.12,4.55c11.41,4.7,16.86,13.61,14.84,24C224.58,818.43,214.94,825.94,201,825.85Z"/><path class="cls-1" d="M374.33,764.26c0,3,0,5.11,0,7.24q0,21-.11,42c0,1.33.07,2.67-.05,4-.39,4.46-3.05,7.21-6.82,7.14s-6.41-2.88-6.44-7.37c-.09-15.66-.24-31.33,0-47,.09-4.71-1.37-6.13-5.89-5.79a51.4,51.4,0,0,1-10.94-.46c-3.57-.49-5.66-2.81-5.36-6.6s2.52-6,6.14-6q22.24-.18,44.48.09c3.83,0,6.28,2.46,6.19,6.43s-2.4,6.18-6.34,6.31C384.6,764.38,380,764.26,374.33,764.26Z"/><path class="cls-1" d="M246.13,787.84c0-9.32-.06-18.65,0-28,0-5.71,2.39-8.45,6.92-8.43s7.08,3,7.08,8.37c0,18.64-.09,37.28-.15,55.93,0,.16,0,.33,0,.5-.24,5.26-2.95,8.42-7.23,8.4-4,0-6.51-3-6.55-8.35-.07-9.48,0-19,0-28.45Z"/><path class="cls-1" d="M126.69,787.17q0,13.73,0,27.45a16.79,16.79,0,0,1-.14,3.48c-.81,3.81-2.9,6.58-7.09,6.29-4-.27-6.43-2.82-6.45-6.91q-.1-29.7,0-59.4c0-4.14,2.5-6.47,6.52-6.79,3.69-.3,6.89,2.85,6.94,6.93.12,9.64,0,19.3,0,28.95Z"/></g></g></svg>