<svg height="100%" width="100%" version="1.1" viewBox="0 -25 380 480"
  xmlns="http://www.w3.org/2000/svg">
  <g id="head" transform="translate(82.000000, 0.000000)">
    <g id="Head/Front/No-Hair" stroke="none" stroke-width="1" fill="none" fill-rule="evenodd">
      <g id="Head" transform="translate(54.000000, 31.000000)" fill="rgb(77, 25, 77)">
        <path
          d="M8.26227388,34.4901268 C3.65436435,29.0813759 0.535634794,22.4528771 1.05677633,15.0254539 C2.55833022,-6.37502057 32.3485306,-1.66718886 38.1433414,9.13393292 C43.9381521,19.9350547 43.249578,47.3329958 35.7603014,49.2634576 C32.7735882,50.033323 26.4110012,48.1474609 19.935372,44.244306 L24,73 L0,73 L8.26227388,34.4901268 Z"></path>
      </g>
    </g>
  </g>
  <g id="bottom" transform="translate(0.000000, 187.000000)">
    <g id="Bottom/Standing/Baggy-Pants" stroke="none" stroke-width="1" fill="none"
      fill-rule="evenodd">
      <polygon id="Leg" fill="rgb(77, 25, 77)"
        points="134 0 183.081639 124.226909 216.000898 229.25029 229 229.25029 178.673688 5.090379e-13"></polygon>
      <path
        d="M124.116628,0 C123.593979,43.6541888 115.971833,102.427468 114.754071,105.148648 C113.942229,106.962768 85.9161573,130.032465 30.6758546,174.357739 L39.6290713,183.938736 C104.807511,145.935376 138.9048,124.399339 141.920937,119.330628 C146.445143,111.72756 161.1744,41.763137 173,0 L124.116628,0 Z"
        id="Leg" fill="rgb(77, 25, 77)"></path>
      <g id="Accessories/Shoe/Flat-Sneaker"
        transform="translate(51.500000, 189.000000) rotate(50.000000) translate(-51.500000, -189.000000) translate(21.000000, 169.000000)"
        fill="#E4E4E4">
        <path
          d="M2.67813181,25.4019242 C1.55937727,28.3884109 1,30.6229931 1,32.1056708 C1,33.908957 1.3004142,36.5404001 1.90124261,40 C3.99318117,40 22.7937852,40 58.3030548,40 C59.768738,35.1545073 58.9226607,32.5385816 55.7648228,32.1522232 C52.606985,31.7658647 49.9837155,31.4170139 47.8950143,31.1056708 L21.6799926,19.4188835 C21.1755635,19.1940064 20.584344,19.4206282 20.359467,19.9250573 C20.35562,19.9336867 20.3518954,19.9423702 20.3482945,19.9511052 L18.6632131,24.038695 C15.7398812,25.4026522 13.3643706,26.0846307 11.5366811,26.0846307 C10.0517269,26.0846307 8.00099246,25.4849054 5.38447792,24.2854549 L5.38448339,24.285443 C4.38038273,23.8251478 3.19325534,24.2659892 2.73296014,25.2700899 C2.71312074,25.3133681 2.69483298,25.3573409 2.67813181,25.4019242 Z"
          id="shoe"></path>
      </g>
      <g id="Accessories/Shoe/Flat-Sneaker" transform="translate(208.000000, 199.000000)"
        fill="#E4E4E4">
        <path
          d="M2.67813181,25.4019242 C1.55937727,28.3884109 1,30.6229931 1,32.1056708 C1,33.908957 1.3004142,36.5404001 1.90124261,40 C3.99318117,40 22.7937852,40 58.3030548,40 C59.768738,35.1545073 58.9226607,32.5385816 55.7648228,32.1522232 C52.606985,31.7658647 49.9837155,31.4170139 47.8950143,31.1056708 L21.6799926,19.4188835 C21.1755635,19.1940064 20.584344,19.4206282 20.359467,19.9250573 C20.35562,19.9336867 20.3518954,19.9423702 20.3482945,19.9511052 L18.6632131,24.038695 C15.7398812,25.4026522 13.3643706,26.0846307 11.5366811,26.0846307 C10.0517269,26.0846307 8.00099246,25.4849054 5.38447792,24.2854549 L5.38448339,24.285443 C4.38038273,23.8251478 3.19325534,24.2659892 2.73296014,25.2700899 C2.71312074,25.3133681 2.69483298,25.3573409 2.67813181,25.4019242 Z"
          id="shoe"></path>
      </g>
      <polygon id="Pant" fill="#69A1AC"
        points="167 218.432889 228.804464 211.725327 183 2.84217094e-14 127.644073 2.84217094e-14"></polygon>
      <path
        d="M43.4599581,158.900479 L84,206.885961 C126.699953,160.249961 151.594137,129.819963 158.682552,115.595966 C165.770967,101.37197 172.143091,62.839981 177.798925,0 L115.478146,0 C112.388642,55.2838742 110.306102,84.2121259 109.230525,86.7847551 C108.154948,89.3573843 86.2314253,113.395959 43.4599581,158.900479 Z"
        id="Pant" fill="#89C5CC"></path>
    </g>
  </g>
  <g id="torso" transform="translate(22.000000, 82.000000)">
    <g id="Body/Lab-Coat" stroke="none" stroke-width="1" fill="none" fill-rule="evenodd">
      <path
        d="M190.358872,88.6100216 L220.545493,114.201672 C229.013042,117.13396 236.02085,120.535571 241.568917,124.406506 C242.849565,125.748514 244.32618,128.3882 238.68408,127.555307 C233.04198,126.722415 227.069879,126.100082 226.151873,127.980187 C225.233867,129.860292 228.504819,132.414187 226.740072,134.914152 C225.563574,136.580795 220.885448,131.868337 212.705694,120.776779 L182.108696,105.506639 L190.358872,88.6100216 Z M53.6671405,77.5359191 L71.3789189,80.1081345 C52.3668948,121.357659 42.1743233,143.172797 40.8012044,145.553548 C37.7116869,150.910237 41.3451669,160.240318 42.7655846,165.17944 C35.5871864,167.252341 37.8797238,156.161524 28.8030963,158.927786 C20.5183715,161.452702 13.6817028,167.176559 5.47644547,160.370261 C4.4676573,159.533467 3.61787693,156.797168 6.82426992,155.202852 C14.8125642,151.230829 26.541227,143.962534 28.3644086,141.283781 C30.8506424,137.630823 39.2848864,116.381535 53.6671405,77.5359191 Z"
        id="Skin" fill="rgb(77, 25, 77)"></path>
      <path
        d="M122.979272,9.21054221 L133.596123,4.63843187 C151.668356,40.3896079 176.923065,74.3010145 216.52753,101.346035 L208.768287,117.911928 C174.615844,101.621394 142.570612,89.4491188 127.58307,61.8321985 C122.552864,52.5632462 123.64558,20.7613641 122.979272,9.21054221 Z"
        id="Coat-Back" fill="#C5CFD6"
        transform="translate(169.753401, 61.275180) rotate(5.000000) translate(-169.753401, -61.275180) "></path>
      <path
        d="M90,110 C121.438326,113.333333 146.183737,113.333333 164.236234,110 C166.472817,109.587022 166.825667,105.842388 165.788454,103.300966 C149.636353,63.7244027 138.560302,29.1916266 138.560302,1.70263734 C135.596594,3.1967882 130.409827,3.42070538 123,2.37438888 C103.086202,30.7026762 93.9325378,63.2061447 90,110 Z"
        id="Shirt" fill="#323337"></path>
      <path
        d="M118.049397,6.01740879e-14 L126.348425,5.5067062e-14 C128.280769,11.364871 134.375512,165.262588 153.190593,215.605966 L51.3853184,215.605966 C53.5924278,169.487243 71.0028709,114.087392 88.6398091,67.7283096 C73.0444357,81.9994875 59.4517855,106.180947 47.8618586,140.272687 L28.7926212,135.377648 C42.9712244,74.2810826 72.1224478,29.374879 116.246291,0.659036861 C116.341837,0.438307691 116.436936,0.218626329 116.531583,6.10622664e-14 L117.266004,6.06181771e-14 C117.53632,-0.173493435 117.807193,-0.346385506 118.078622,-0.518676213 L118.049397,6.1284311e-14 Z"
        id="Coat-Front" fill="#DDE3E9"></path>
    </g>
  </g>
</svg>