<?xml version="1.0" encoding="utf-8"?>
<!-- Generator: Adobe Illustrator 24.1.2, SVG Export Plug-In . SVG Version: 6.00 Build 0)  -->
<svg version="1.1" id="Layer_1" xmlns="http://www.w3.org/2000/svg" xmlns:xlink="http://www.w3.org/1999/xlink" x="0px" y="0px"
	 viewBox="0 0 235 300" style="enable-background:new 0 0 235 300;" xml:space="preserve">
<style type="text/css">
	.st0{fill-rule:evenodd;clip-rule:evenodd;fill:#FFFFFF;}
	.st1{fill-rule:evenodd;clip-rule:evenodd;fill:#006466;}
	.st2{fill-rule:evenodd;clip-rule:evenodd;fill:#E4E4E4;}
	.st3{fill-rule:evenodd;clip-rule:evenodd;fill:#69A1AC;}
	.st4{fill-rule:evenodd;clip-rule:evenodd;fill:#89C5CC;}
	.st5{fill-rule:evenodd;clip-rule:evenodd;fill:#E87613;}
	.st6{fill-rule:evenodd;clip-rule:evenodd;fill:#DDE3E9;}
	.st7{fill-rule:evenodd;clip-rule:evenodd;fill:#FF9B21;}
	.st8{fill-rule:evenodd;clip-rule:evenodd;fill-opacity:0.1;}
</style>
<g id="head" transform="translate(82.000000, 0.000000)">
	<g id="Head_x2F_Front_x2F_Airy">
		<g id="Head" transform="translate(54.000000, 31.000000)">
			<path class="st0" d="M-14.6,25.6c-2.9-3.4-4.8-7.5-4.5-12.2C-18.2,0,0.5,3,4.1,9.7s3.2,23.9-1.5,25.1c-1.9,0.5-5.8-0.7-9.9-3.1
				l2.5,18h-15L-14.6,25.6z"/>
		</g>
		<path id="Hair" class="st1" d="M49.5,32.9c-2-0.3-7.3-0.5-8.3-0.5c-0.6,0-1.3,0.1-1.7-0.4c-0.3-0.5-0.2-1.3-0.3-1.8
			c-0.1-0.6-0.3-1.3-0.4-1.9c-0.4-1.8-1.1-3.5-2-5.1c-1.7-3-4.2-5.3-7.4-6.7c-3.5-1.5-7.5-1.8-11.2-1.5c-4,0.3-7.7,1.7-11.5,2.9
			C3.2,19-0.6,19.5-4.4,18.9c-3.8-0.6-6.7-2.7-9.9-4.6c-3.3-2-7.1-3.3-11-3c-3.6,0.3-7,1.8-10,3.8c-2.8,1.9-5.1,4.1-6.4,7.3
			c-1.4,3.4-1.4,7.2,0.9,10.2c3.4,4.4,9.6,5.5,14.8,5.4c3-0.1,5.9-0.6,8.8-1.6c3.8-1.3,7-3.6,10.6-5.4c1.7-0.9,3.4-1.6,5.2-2.1
			c1.7-0.5,3.5-0.7,5,0.3c1.7,1.1,3.2,2.2,5.1,2.9c1.8,0.7,3.8,1,5.7,1c3.8,0,7.5-1.2,11.2-2c3-0.6,6.2-1.3,9.3-0.7
			c1.3,0.3,3.2,0.8,3.6,2.1c-7.8,1.4-10.8,11-8.6,18.1C31.1,54.5,38.2,59,41,57c1.8-1.3,0.7-2.9,0-4c-1.3-2.1-1.8-4.8,0.7-6.3
			c2.1-1.3,4.3,1.7,4.4,1.7c0.6,0,5.6-2.9,9-7c3.4,0.2,3.9-2,3.1-3.9C57.3,35.7,52.3,33.4,49.5,32.9z"/>
	</g>
</g>
<g id="bottom" transform="translate(0.000000, 187.000000)">
	<g id="Bottom_x2F_Standing_x2F_Baggy-Pants">
		<polygon id="Leg" class="st0" points="115,-54.5 145.7,23.1 166.3,88.8 174.4,88.8 142.9,-54.5 		"/>
		<path id="Leg_1_" class="st0" d="M108.8-54.5c-0.3,27.3-5.1,64-5.9,65.7c-0.5,1.1-18,15.6-52.5,43.3l5.6,6
			c40.7-23.8,62-37.2,63.9-40.4c2.8-4.8,12-48.5,19.4-74.6H108.8z"/>
		
			<g id="Accessories_x2F_Shoe_x2F_Flat-Sneaker" transform="translate(51.500000, 189.000000) rotate(50.000000) translate(-51.500000, -189.000000) translate(21.000000, 169.000000)">
			<path id="shoe" class="st2" d="M-75.3-66.4c-0.7,1.9-1,3.3-1,4.2c0,1.1,0.2,2.8,0.6,4.9c1.3,0,13.1,0,35.3,0
				c0.9-3,0.4-4.7-1.6-4.9s-3.6-0.5-4.9-0.7l-16.4-7.3c-0.3-0.1-0.7,0-0.8,0.3c0,0,0,0,0,0l-1.1,2.6c-1.8,0.9-3.3,1.3-4.5,1.3
				c-0.9,0-2.2-0.4-3.8-1.1l0,0C-74.2-67.3-74.9-67.1-75.3-66.4C-75.2-66.4-75.2-66.4-75.3-66.4z"/>
		</g>
		<g id="Accessories_x2F_Shoe_x2F_Flat-Sneaker_1_" transform="translate(208.000000, 199.000000)">
			<path id="shoe_1_" class="st2" d="M-45.1-113.2c-0.7,1.9-1,3.3-1,4.2c0,1.1,0.2,2.8,0.6,4.9c1.3,0,13.1,0,35.3,0
				c0.9-3,0.4-4.7-1.6-4.9c-2-0.2-3.6-0.5-4.9-0.7l-16.4-7.3c-0.3-0.1-0.7,0-0.8,0.3c0,0,0,0,0,0l-1.1,2.6c-1.8,0.9-3.3,1.3-4.5,1.3
				c-0.9,0-2.2-0.4-3.8-1.1l0,0C-44-114.2-44.8-114-45.1-113.2C-45.1-113.3-45.1-113.3-45.1-113.2z"/>
		</g>
		<polygon id="Pant" class="st3" points="135.6,82 174.3,77.8 145.6,-54.5 111,-54.5 		"/>
		<path id="Pant_1_" class="st4" d="M58.4,44.8l25.3,30c26.7-29.1,42.2-48.2,46.7-57.1c4.4-8.9,8.4-33,11.9-72.2h-39
			c-1.9,34.6-3.2,52.6-3.9,54.2C98.8,1.3,85.1,16.4,58.4,44.8z"/>
	</g>
</g>
<g id="torso" transform="translate(22.000000, 82.000000)">
	<g id="Body_x2F_Hoodie">
		<path id="Skin" class="st0" d="M142.2,42.5l19.9,14.6c5.4,1.5,9.9,3.3,13.6,5.4c0.9,0.8,1.9,2.4-1.7,2.1s-7.3-0.4-7.8,0.8
			c-0.5,1.2,1.7,2.7,0.7,4.3c-0.7,1.1-3.8-1.6-9.4-8.2l-19.7-8.2L142.2,42.5z M65.7,43l13.1,0.1c-8.1,26-12.4,39.8-13.1,41.4
			c-1.4,3.6,1.6,9,2.9,12c-4.3,1.9-3.8-5.2-9.2-2.7c-4.9,2.3-8.6,6.4-14.3,2.9c-0.7-0.4-1.5-2,0.4-3.3c4.6-3.2,11.2-8.7,12.1-10.5
			C58.8,80.5,61.5,67.2,65.7,43z"/>
		<path id="Coat-Back" class="st5" d="M102.8-11.8l5.4-0.9c20.1,17.3,28.3,50.6,52.9,68.2l-5.9,7.3C112.5,57.6,102,17,102.8-11.8z"
			/>
		<path id="Shirt" class="st6" d="M79.3,56.1c21.7,0,37.6,0,47.8,0c2.2,0,1.8-3.2,1.5-4.7C124.9,33,110.7,13.2,110.7-13l-13.8-2.2
			C85.4,3.2,81.5,25.8,79.3,56.1z"/>
		<path id="Coat-Front" class="st7" d="M79.6,2.9c-2-0.6-3.6-1.9-4.8-4c-5-9.1-3.2-14.1,2.2-15.8c5.4-1.6,10.2,1.7,18.8,1.7
			c0.5,0,0.9,0,1.3,0.1l4.3,0.2c12.4,42,15.8,70,10.3,84H74c-2.2,5.2-4.4,9.6-6.4,13.1H57.4C56.4,51.2,63.8,24.7,79.6,2.9z"/>
		<path id="Shade" class="st8" d="M82.2,47.7c1.2,9.9,3.1,17.1,5.8,21.6H74C76.6,63.2,79.4,56,82.2,47.7z"/>
	</g>
</g>
</svg>
