<svg height="100%" width="100%" version="1.1" viewBox="0 -25 380 480"
  xmlns="http://www.w3.org/2000/svg">
  <g id="head" transform="translate(82.000000, 0.000000)">
    <g id="Head/Front/Wavy" stroke="none" stroke-width="1" fill="none" fill-rule="evenodd">
      <g id="Head" transform="translate(54.000000, 31.000000)" fill="rgb(255, 255, 255)">
        <path
          d="M8.26227388,34.4901268 C3.65436435,29.0813759 0.535634794,22.4528771 1.05677633,15.0254539 C2.55833022,-6.37502057 32.3485306,-1.66718886 38.1433414,9.13393292 C43.9381521,19.9350547 43.249578,47.3329958 35.7603014,49.2634576 C32.7735882,50.033323 26.4110012,48.1474609 19.935372,44.244306 L24,73 L0,73 L8.26227388,34.4901268 Z"></path>
      </g>
      <path
        d="M94.4090961,44.9836328 C94.1713645,43.583583 93.5903632,42.028843 93.1215639,40.7042644 C92.5171614,38.996708 91.602499,37.4571303 90.5959364,36.0061417 C88.7009022,33.2743581 86.427574,30.8074902 83.917599,28.760058 C79.3328188,25.0202318 73.4966155,22.8630853 67.7574266,23.5636213 C64.8597041,23.9172965 62.046753,25.0226169 59.6525443,26.8623756 C57.4894034,28.5246153 55.4087091,30.9715506 52.6076911,31.147366 C49.5599529,31.3385142 46.7662186,28.6484698 44.321953,26.9870819 C41.5660327,25.1141023 38.6342158,23.7493178 35.4132155,23.2188049 C30.0172962,22.3303577 24.9482191,24.1534208 21.2294392,28.5804946 C17.2721527,33.2915649 14.3955069,40.2003282 16.9942826,46.442458 C17.4773396,47.6028059 18.0987894,48.5810349 18.9906704,49.3917962 C19.8086285,50.1352639 21.0578819,50.926263 21.3895284,52.1142098 C21.7417865,53.3769463 20.6895063,55.005965 20.2814572,56.1453581 C19.6968915,57.7777841 19.2169339,59.4913033 19.3875614,61.2656423 C19.6679112,64.1795448 21.4990957,66.961245 23.4327187,68.8764749 C25.4004362,70.8254368 27.8222304,71.9430234 30.408918,72.4582035 C32.1361143,72.802168 33.9012795,72.9919533 35.6566813,72.8628175 C36.5281056,72.7987608 37.2970916,72.5566738 38.1413953,72.3641627 C38.9624528,72.1769329 39.4213338,72.3949985 40.1179464,72.8452701 C43.3539792,74.9373376 46.8334778,75.746736 50.5700799,75.4356517 C53.723666,75.1729507 57.3584495,74.4086987 59.9310344,72.2479746 C62.7879984,69.84823 62.7311226,66.5390835 62.0588411,63.0035235 C62.7711061,63.3565173 64.7416132,63.575094 63.5641132,62.1680594 C63.0976384,61.6107994 62.2162957,61.3840451 61.6177822,61.0562652 C60.9208597,60.6746502 60.2132439,60.181447 59.6720712,59.5589377 C57.4869238,57.0453901 59.6939227,51.9300465 62.4403895,51.0870864 C66.5208811,49.8347421 67.4344587,55.6054753 70.3473686,57.0982029 C72.0221834,57.9564958 73.7741757,56.7833706 75.0290082,55.5855427 C76.709867,53.980886 77.8554422,51.8550865 78.8444926,49.6918069 C79.6591961,47.9103126 80.4173338,46.1037748 81.2476898,44.3311394 C81.6354372,43.5033417 82.9778306,41.1632245 82.3036894,40.2272457 C85.2263628,39.6444311 88.4816125,40.8589547 90.9987164,42.4516859 C92.0390635,43.110142 92.8322255,43.8360622 93.387191,44.9984544 C93.5060568,45.2475263 93.7648651,45.9879274 94.0898476,46.0182522 C94.69487,46.0748129 94.4687615,45.335434 94.4090961,44.9836328"
        id="Hair" fill="rgb(0, 100, 102)"></path>
    </g>
  </g>
  <g id="bottom" transform="translate(0.000000, 187.000000)">
    <g id="Bottom/Standing/Baggy-Pants" stroke="none" stroke-width="1" fill="none"
      fill-rule="evenodd">
      <polygon id="Leg" fill="rgb(255, 255, 255)"
        points="134 0 183.081639 124.226909 216.000898 229.25029 229 229.25029 178.673688 5.090379e-13"></polygon>
      <path
        d="M124.116628,0 C123.593979,43.6541888 115.971833,102.427468 114.754071,105.148648 C113.942229,106.962768 85.9161573,130.032465 30.6758546,174.357739 L39.6290713,183.938736 C104.807511,145.935376 138.9048,124.399339 141.920937,119.330628 C146.445143,111.72756 161.1744,41.763137 173,0 L124.116628,0 Z"
        id="Leg" fill="rgb(255, 255, 255)"></path>
      <g id="Accessories/Shoe/Flat-Sneaker"
        transform="translate(51.500000, 189.000000) rotate(50.000000) translate(-51.500000, -189.000000) translate(21.000000, 169.000000)"
        fill="#E4E4E4">
        <path
          d="M2.67813181,25.4019242 C1.55937727,28.3884109 1,30.6229931 1,32.1056708 C1,33.908957 1.3004142,36.5404001 1.90124261,40 C3.99318117,40 22.7937852,40 58.3030548,40 C59.768738,35.1545073 58.9226607,32.5385816 55.7648228,32.1522232 C52.606985,31.7658647 49.9837155,31.4170139 47.8950143,31.1056708 L21.6799926,19.4188835 C21.1755635,19.1940064 20.584344,19.4206282 20.359467,19.9250573 C20.35562,19.9336867 20.3518954,19.9423702 20.3482945,19.9511052 L18.6632131,24.038695 C15.7398812,25.4026522 13.3643706,26.0846307 11.5366811,26.0846307 C10.0517269,26.0846307 8.00099246,25.4849054 5.38447792,24.2854549 L5.38448339,24.285443 C4.38038273,23.8251478 3.19325534,24.2659892 2.73296014,25.2700899 C2.71312074,25.3133681 2.69483298,25.3573409 2.67813181,25.4019242 Z"
          id="shoe"></path>
      </g>
      <g id="Accessories/Shoe/Flat-Sneaker" transform="translate(208.000000, 199.000000)"
        fill="#E4E4E4">
        <path
          d="M2.67813181,25.4019242 C1.55937727,28.3884109 1,30.6229931 1,32.1056708 C1,33.908957 1.3004142,36.5404001 1.90124261,40 C3.99318117,40 22.7937852,40 58.3030548,40 C59.768738,35.1545073 58.9226607,32.5385816 55.7648228,32.1522232 C52.606985,31.7658647 49.9837155,31.4170139 47.8950143,31.1056708 L21.6799926,19.4188835 C21.1755635,19.1940064 20.584344,19.4206282 20.359467,19.9250573 C20.35562,19.9336867 20.3518954,19.9423702 20.3482945,19.9511052 L18.6632131,24.038695 C15.7398812,25.4026522 13.3643706,26.0846307 11.5366811,26.0846307 C10.0517269,26.0846307 8.00099246,25.4849054 5.38447792,24.2854549 L5.38448339,24.285443 C4.38038273,23.8251478 3.19325534,24.2659892 2.73296014,25.2700899 C2.71312074,25.3133681 2.69483298,25.3573409 2.67813181,25.4019242 Z"
          id="shoe"></path>
      </g>
      <polygon id="Pant" fill="#69A1AC"
        points="167 218.432889 228.804464 211.725327 183 2.84217094e-14 127.644073 2.84217094e-14"></polygon>
      <path
        d="M43.4599581,158.900479 L84,206.885961 C126.699953,160.249961 151.594137,129.819963 158.682552,115.595966 C165.770967,101.37197 172.143091,62.839981 177.798925,0 L115.478146,0 C112.388642,55.2838742 110.306102,84.2121259 109.230525,86.7847551 C108.154948,89.3573843 86.2314253,113.395959 43.4599581,158.900479 Z"
        id="Pant" fill="#89C5CC"></path>
    </g>
  </g>
  <g id="torso" transform="translate(22.000000, 82.000000)">
    <g id="Body/Trench-Coat" stroke="none" stroke-width="1" fill="none" fill-rule="evenodd">
      <path
        d="M197.692975,90.2442388 L227.879596,115.83589 C236.347145,118.768177 243.354953,122.169788 248.90302,126.040723 C250.183668,127.382731 251.660283,130.022417 246.018183,129.189525 C240.376083,128.356632 234.403982,127.734299 233.485976,129.614404 C232.56797,131.49451 235.838922,134.048404 234.074175,136.548369 C232.897677,138.215012 228.219551,133.502554 220.039797,122.410996 L189.442799,107.140857 L197.692975,90.2442388 Z M54.3748075,70.4422362 L71.7206892,74.8517457 C48.5010655,113.888004 36.0840272,134.518222 34.4695742,136.742401 C30.8370549,141.746803 33.4753713,151.405575 34.3717289,156.466114 C27.0159775,157.777312 30.4552622,146.986888 21.1392043,148.78923 C12.6359386,150.434324 5.23841582,155.412199 -2.21044035,147.785504 C-3.12623345,146.847846 -3.68533756,144.037711 -0.329858103,142.787288 C8.0298649,139.672029 20.4540206,133.669529 22.5472206,131.196025 C25.4016727,127.82296 36.0108683,107.571697 54.3748075,70.4422362 Z"
        id="Skin" fill="rgb(255, 255, 255)"
        transform="translate(123.586250, 113.509597) rotate(-4.000000) translate(-123.586250, -113.509597) "></path>
      <path
        d="M203.320455,87.6779032 C207.424546,87.3832636 211.888791,88.063152 216.675075,89.6758318 C219.030261,90.4693828 220.296216,93.0219384 219.502665,95.3771242 C219.041777,96.7449968 217.987543,97.7454511 216.723241,98.1883982 C217.639067,98.8565328 218.563007,99.520979 219.495159,100.181671 L211.447983,116.609623 C177.58505,99.7255288 145.757134,86.9958405 131.253857,59.1215578 C126.386182,49.766228 128.033751,17.9882599 127.569134,6.42756866 L138.264162,2.04144427 C153.172616,32.858252 173.349023,62.4232387 203.320455,87.6779032 Z"
        id="Back-Arm" fill="#69A1AC"></path>
      <path
        d="M90,113.909745 C121.438326,117.363418 146.183737,117.363418 164.236234,113.909745 C166.472817,113.481858 166.374598,103.840401 165.337385,101.207228 C149.185283,60.2018743 138.560302,30.1840325 138.560302,1.70263734 C135.596594,3.25072994 130.409827,3.48273097 123,2.39864042 C103.086202,31.7496339 93.9325378,65.4265407 90,113.909745 Z"
        id="Shirt" fill="#191847"></path>
      <path
        d="M84.1585766,118.757813 C83.0909039,117.753244 82.5343141,116.247337 82.8078928,114.695795 L83.3288374,111.741372 C83.6818668,109.739242 85.3079057,108.281318 87.2277662,108.053234 C87.5633833,106.552966 87.8527505,105.062753 88.0917371,103.583451 C90.1105318,91.0873271 86.6613147,78.8344715 86.8233023,66.8021056 C70.7431982,80.5215474 56.3180804,104.211193 43.5479488,137.871041 L24.6611622,132.313477 C25.3818,129.636227 26.1282539,126.991859 26.9005241,124.380374 C24.7206054,123.141961 22.1733635,117.465977 24.0066041,116.516161 C25.8999362,115.53521 27.9056982,114.844785 30.0179817,114.438414 C47.3353888,62.2791261 75.6546193,24.1329883 114.975674,-4.19220214e-13 L120.377288,-4.12114787e-13 L126.348425,-1.0658141e-14 C123,44.2807404 169.249642,140.9549 153.190593,223.518112 C123.507857,230.146789 81.1319105,209.522766 39.8828129,226 C41.4176928,192.750911 72.1631413,153.690797 84.1585803,118.757804 Z"
        id="Coat-Front" fill="#89C5CC"></path>
      <polygon id="Shade-Lapel" fill-opacity="0.1" fill="#000000"
        points="119.105759 1 113.946604 16.8654451 124.335997 28.7590435 114.946604 38.1055065 137.662251 77 109.883587 38.1832119 119.105759 28.7590435 109.883587 18.2484583"></polygon>
      <path
        d="M131,92 C128.790861,92 127,90.209139 127,88 C127,85.790861 128.790861,84 131,84 C133.209139,84 135,85.790861 135,88 C135,90.209139 133.209139,92 131,92 Z M136,115 C133.790861,115 132,113.209139 132,111 C132,108.790861 133.790861,107 136,107 C138.209139,107 140,108.790861 140,111 C140,113.209139 138.209139,115 136,115 Z M137,138 C134.790861,138 133,136.209139 133,134 C133,131.790861 134.790861,130 137,130 C139.209139,130 141,131.790861 141,134 C141,136.209139 139.209139,138 137,138 Z"
        id="Buttons" fill-opacity="0.4" fill="#000000"></path>
    </g>
  </g>
</svg>