<?xml version="1.0" encoding="utf-8"?>
<!-- Generator: Adobe Illustrator 24.1.2, SVG Export Plug-In . SVG Version: 6.00 Build 0)  -->
<svg version="1.1" id="Layer_1" xmlns="http://www.w3.org/2000/svg" xmlns:xlink="http://www.w3.org/1999/xlink" x="0px" y="0px"
	 viewBox="0 0 239 300" style="enable-background:new 0 0 239 300;" xml:space="preserve">
<style type="text/css">
	.st0{fill-rule:evenodd;clip-rule:evenodd;fill:#FFFFFF;}
	.st1{fill-rule:evenodd;clip-rule:evenodd;fill:#006466;}
	.st2{fill-rule:evenodd;clip-rule:evenodd;fill:#E4E4E4;}
	.st3{fill-rule:evenodd;clip-rule:evenodd;fill:#69A1AC;}
	.st4{fill-rule:evenodd;clip-rule:evenodd;fill:#89C5CC;}
	.st5{fill-rule:evenodd;clip-rule:evenodd;fill:#191847;}
	.st6{fill-rule:evenodd;clip-rule:evenodd;fill-opacity:0.1;}
	.st7{fill-rule:evenodd;clip-rule:evenodd;fill-opacity:0.4;}
</style>
<g id="head" transform="translate(82.000000, 0.000000)">
	<g id="Head_x2F_Front_x2F_Wavy">
		<g id="Head" transform="translate(54.000000, 31.000000)">
			<path class="st0" d="M-14.6,25.6c-2.9-3.4-4.8-7.5-4.5-12.2C-18.2,0,0.5,3,4.1,9.7s3.2,23.9-1.5,25.1c-1.9,0.5-5.8-0.7-9.9-3.1
				l2.5,18h-15L-14.6,25.6z"/>
		</g>
		<path id="Hair" class="st1" d="M59.5,43.7c-0.1-0.9-0.5-1.8-0.8-2.7c-0.4-1.1-0.9-2-1.6-2.9c-1.2-1.7-2.6-3.2-4.2-4.5
			c-2.9-2.3-6.5-3.7-10.1-3.2c-1.8,0.2-3.6,0.9-5.1,2.1c-1.4,1-2.7,2.6-4.4,2.7c-1.9,0.1-3.7-1.6-5.2-2.6c-1.7-1.2-3.6-2-5.6-2.4
			c-3.4-0.6-6.5,0.6-8.9,3.4c-2.5,2.9-4.3,7.3-2.6,11.2c0.3,0.7,0.7,1.3,1.2,1.8c0.5,0.5,1.3,1,1.5,1.7c0.2,0.8-0.4,1.8-0.7,2.5
			c-0.4,1-0.7,2.1-0.6,3.2c0.2,1.8,1.3,3.6,2.5,4.8c1.2,1.2,2.7,1.9,4.4,2.2c1.1,0.2,2.2,0.3,3.3,0.3c0.5,0,1-0.2,1.6-0.3
			c0.5-0.1,0.8,0,1.2,0.3c2,1.3,4.2,1.8,6.5,1.6c2-0.2,4.2-0.6,5.9-2c1.8-1.5,1.8-3.6,1.3-5.8c0.4,0.2,1.7,0.4,0.9-0.5
			c-0.3-0.3-0.8-0.5-1.2-0.7c-0.4-0.2-0.9-0.5-1.2-0.9c-1.4-1.6,0-4.8,1.7-5.3c2.6-0.8,3.1,2.8,4.9,3.8c1,0.5,2.1-0.2,2.9-0.9
			c1.1-1,1.8-2.3,2.4-3.7c0.5-1.1,1-2.2,1.5-3.4c0.2-0.5,1.1-2,0.7-2.6c1.8-0.4,3.9,0.4,5.4,1.4c0.7,0.4,1.1,0.9,1.5,1.6
			c0.1,0.2,0.2,0.6,0.4,0.6C59.7,44.4,59.5,44,59.5,43.7"/>
	</g>
</g>
<g id="bottom" transform="translate(0.000000, 187.000000)">
	<g id="Bottom_x2F_Standing_x2F_Baggy-Pants">
		<polygon id="Leg" class="st0" points="115,-54.5 145.7,23.1 166.3,88.8 174.4,88.8 142.9,-54.5 		"/>
		<path id="Leg_1_" class="st0" d="M108.8-54.5c-0.3,27.3-5.1,64-5.9,65.7c-0.5,1.1-18,15.6-52.5,43.3l5.6,6
			c40.7-23.8,62-37.2,63.9-40.4c2.8-4.8,12-48.5,19.4-74.6H108.8z"/>
		
			<g id="Accessories_x2F_Shoe_x2F_Flat-Sneaker" transform="translate(51.500000, 189.000000) rotate(50.000000) translate(-51.500000, -189.000000) translate(21.000000, 169.000000)">
			<path id="shoe" class="st2" d="M-75.3-66.4c-0.7,1.9-1,3.3-1,4.2c0,1.1,0.2,2.8,0.6,4.9c1.3,0,13.1,0,35.3,0
				c0.9-3,0.4-4.7-1.6-4.9s-3.6-0.5-4.9-0.7l-16.4-7.3c-0.3-0.1-0.7,0-0.8,0.3c0,0,0,0,0,0l-1.1,2.6c-1.8,0.9-3.3,1.3-4.5,1.3
				c-0.9,0-2.2-0.4-3.8-1.1l0,0C-74.2-67.3-74.9-67.1-75.3-66.4C-75.2-66.4-75.2-66.4-75.3-66.4z"/>
		</g>
		<g id="Accessories_x2F_Shoe_x2F_Flat-Sneaker_1_" transform="translate(208.000000, 199.000000)">
			<path id="shoe_1_" class="st2" d="M-45.1-113.2c-0.7,1.9-1,3.3-1,4.2c0,1.1,0.2,2.8,0.6,4.9c1.3,0,13.1,0,35.3,0
				c0.9-3,0.4-4.7-1.6-4.9c-2-0.2-3.6-0.5-4.9-0.7l-16.4-7.3c-0.3-0.1-0.7,0-0.8,0.3c0,0,0,0,0,0l-1.1,2.6c-1.8,0.9-3.3,1.3-4.5,1.3
				c-0.9,0-2.2-0.4-3.8-1.1l0,0C-44-114.2-44.8-114-45.1-113.2C-45.1-113.3-45.1-113.3-45.1-113.2z"/>
		</g>
		<polygon id="Pant" class="st3" points="135.6,82 174.3,77.8 145.6,-54.5 111,-54.5 		"/>
		<path id="Pant_1_" class="st4" d="M58.4,44.8l25.3,30c26.7-29.1,42.2-48.2,46.7-57.1c4.4-8.9,8.4-33,11.9-72.2h-39
			c-1.9,34.6-3.2,52.6-3.9,54.2C98.8,1.3,85.1,16.4,58.4,44.8z"/>
	</g>
</g>
<g id="torso" transform="translate(22.000000, 82.000000)">
	<g id="Body_x2F_Trench-Coat">
		<path id="Skin" class="st0" d="M145.4,38.1l19.9,14.6c5.4,1.5,9.9,3.3,13.6,5.4c0.9,0.8,1.9,2.4-1.7,2.1c-3.6-0.3-7.3-0.4-7.8,0.8
			c-0.5,1.2,1.7,2.7,0.7,4.3c-0.7,1.1-3.8-1.6-9.4-8.2L141,49L145.4,38.1z M55.2,32l11,2C53.4,59.3,46.6,72.7,45.7,74.2
			c-2,3.3,0,9.2,0.8,12.3c-4.5,1.1-2.9-5.7-8.6-4.2c-5.2,1.4-9.6,4.8-14.6,0.4c-0.6-0.5-1.1-2.3,1-3.2c5.1-2.3,12.6-6.6,13.8-8.2
			C39.6,69,45.4,55.9,55.2,32z"/>
		<path id="Back-Arm" class="st3" d="M150.1,39.7c2.6-0.2,5.4,0.2,8.3,1.2c1.5,0.5,2.3,2.1,1.8,3.6c-0.3,0.9-0.9,1.5-1.7,1.8
			c0.6,0.4,1.1,0.8,1.7,1.2l-5,10.3C134,47.2,114.1,39.2,105,21.8c-3-5.8-2-25.7-2.3-32.9l6.7-2.7C118.7,5.4,131.3,23.9,150.1,39.7z
			"/>
		<path id="Shirt" class="st5" d="M79.3,56.1c19.6,2.2,35.1,2.2,46.4,0c1.4-0.3,1.3-6.3,0.7-7.9c-10.1-25.6-16.7-44.4-16.7-62.2
			c-1.9,1-5.1,1.1-9.7,0.4C87.4,4.7,81.7,25.8,79.3,56.1z"/>
		<path id="Coat-Front" class="st4" d="M75.6,59.1c-0.7-0.6-1-1.6-0.8-2.5l0.3-1.8c0.2-1.3,1.2-2.2,2.4-2.3c0.2-0.9,0.4-1.9,0.5-2.8
			c1.3-7.8-0.9-15.5-0.8-23C67.2,35.2,58.2,50,50.2,71l-11.8-3.5c0.5-1.7,0.9-3.3,1.4-5c-1.4-0.8-3-4.3-1.8-4.9
			c1.2-0.6,2.4-1,3.8-1.3C52.6,23.8,70.3,0,94.9-15.1h3.4h3.7c-2.1,27.7,26.8,88.1,16.8,139.7c-18.6,4.1-45-8.7-70.8,1.6
			C48.9,105.3,68.1,80.9,75.6,59.1z"/>
		<polygon id="Shade-Lapel" class="st6" points="97.4,-14.5 94.2,-4.6 100.7,2.8 94.8,8.7 109,33 91.7,8.7 97.4,2.8 91.7,-3.7 		"/>
		<path id="Buttons" class="st7" d="M104.9,42.4c-1.4,0-2.5-1.1-2.5-2.5s1.1-2.5,2.5-2.5s2.5,1.1,2.5,2.5S106.3,42.4,104.9,42.4z
			 M108,56.8c-1.4,0-2.5-1.1-2.5-2.5s1.1-2.5,2.5-2.5s2.5,1.1,2.5,2.5S109.4,56.8,108,56.8z M108.6,71.1c-1.4,0-2.5-1.1-2.5-2.5
			s1.1-2.5,2.5-2.5s2.5,1.1,2.5,2.5S110,71.1,108.6,71.1z"/>
	</g>
</g>
</svg>
