<?xml version="1.0" encoding="utf-8"?>
<!-- Generator: Adobe Illustrator 24.1.2, SVG Export Plug-In . SVG Version: 6.00 Build 0)  -->
<svg version="1.1" id="Layer_1" xmlns="http://www.w3.org/2000/svg" xmlns:xlink="http://www.w3.org/1999/xlink" x="0px" y="0px"
	 viewBox="0 0 245 300" style="enable-background:new 0 0 245 300;" xml:space="preserve">
<style type="text/css">
	.st0{fill-rule:evenodd;clip-rule:evenodd;fill:#4D194D;}
	.st1{fill-rule:evenodd;clip-rule:evenodd;fill:#E4E4E4;}
	.st2{fill-rule:evenodd;clip-rule:evenodd;fill:#69A1AC;}
	.st3{fill-rule:evenodd;clip-rule:evenodd;fill:#89C5CC;}
	.st4{fill-rule:evenodd;clip-rule:evenodd;fill:#C5CFD6;}
	.st5{fill-rule:evenodd;clip-rule:evenodd;fill:#323337;}
	.st6{fill-rule:evenodd;clip-rule:evenodd;fill:#DDE3E9;}
</style>
<g id="head" transform="translate(82.000000, 0.000000)">
	<g id="Head_x2F_Front_x2F_No-Hair">
		<g id="Head" transform="translate(54.000000, 31.000000)">
			<path class="st0" d="M-14.6,25.6c-2.9-3.4-4.8-7.5-4.5-12.2C-18.2,0,0.5,3,4.1,9.7s3.2,23.9-1.5,25.1c-1.9,0.5-5.8-0.7-9.9-3.1
				l2.5,18h-15L-14.6,25.6z"/>
		</g>
	</g>
</g>
<g id="bottom" transform="translate(0.000000, 187.000000)">
	<g id="Bottom_x2F_Standing_x2F_Baggy-Pants">
		<polygon id="Leg" class="st0" points="115,-54.5 145.7,23.1 166.3,88.8 174.4,88.8 142.9,-54.5 		"/>
		<path id="Leg_1_" class="st0" d="M108.8-54.5c-0.3,27.3-5.1,64-5.9,65.7c-0.5,1.1-18,15.6-52.5,43.3l5.6,6
			c40.7-23.8,62-37.2,63.9-40.4c2.8-4.8,12-48.5,19.4-74.6H108.8z"/>
		
			<g id="Accessories_x2F_Shoe_x2F_Flat-Sneaker" transform="translate(51.500000, 189.000000) rotate(50.000000) translate(-51.500000, -189.000000) translate(21.000000, 169.000000)">
			<path id="shoe" class="st1" d="M-75.3-66.4c-0.7,1.9-1,3.3-1,4.2c0,1.1,0.2,2.8,0.6,4.9c1.3,0,13.1,0,35.3,0
				c0.9-3,0.4-4.7-1.6-4.9s-3.6-0.5-4.9-0.7l-16.4-7.3c-0.3-0.1-0.7,0-0.8,0.3c0,0,0,0,0,0l-1.1,2.6c-1.8,0.9-3.3,1.3-4.5,1.3
				c-0.9,0-2.2-0.4-3.8-1.1l0,0C-74.2-67.3-74.9-67.1-75.3-66.4C-75.2-66.4-75.2-66.4-75.3-66.4z"/>
		</g>
		<g id="Accessories_x2F_Shoe_x2F_Flat-Sneaker_1_" transform="translate(208.000000, 199.000000)">
			<path id="shoe_1_" class="st1" d="M-45.1-113.2c-0.7,1.9-1,3.3-1,4.2c0,1.1,0.2,2.8,0.6,4.9c1.3,0,13.1,0,35.3,0
				c0.9-3,0.4-4.7-1.6-4.9c-2-0.2-3.6-0.5-4.9-0.7l-16.4-7.3c-0.3-0.1-0.7,0-0.8,0.3c0,0,0,0,0,0l-1.1,2.6c-1.8,0.9-3.3,1.3-4.5,1.3
				c-0.9,0-2.2-0.4-3.8-1.1l0,0C-44-114.2-44.8-114-45.1-113.2C-45.1-113.3-45.1-113.3-45.1-113.2z"/>
		</g>
		<polygon id="Pant" class="st2" points="135.6,82 174.3,77.8 145.6,-54.5 111,-54.5 		"/>
		<path id="Pant_1_" class="st3" d="M58.4,44.8l25.3,30c26.7-29.1,42.2-48.2,46.7-57.1c4.4-8.9,8.4-33,11.9-72.2h-39
			c-1.9,34.6-3.2,52.6-3.9,54.2C98.8,1.3,85.1,16.4,58.4,44.8z"/>
	</g>
</g>
<g id="torso" transform="translate(22.000000, 82.000000)">
	<g id="Body_x2F_Lab-Coat">
		<path id="Skin" class="st0" d="M142,40.3l18.9,16c5.3,1.8,9.7,4,13.1,6.4c0.8,0.8,1.7,2.5-1.8,2c-3.5-0.5-7.3-0.9-7.8,0.3
			c-0.6,1.2,1.5,2.8,0.4,4.3c-0.7,1-3.7-1.9-8.8-8.8l-19.1-9.5L142,40.3z M56.5,33.3l11.1,1.6C55.7,60.7,49.4,74.4,48.5,75.8
			c-1.9,3.3,0.3,9.2,1.2,12.3c-4.5,1.3-3.1-5.6-8.7-3.9c-5.2,1.6-9.5,5.2-14.6,0.9c-0.6-0.5-1.2-2.2,0.8-3.2c5-2.5,12.3-7,13.5-8.7
			C42.3,70.9,47.6,57.6,56.5,33.3z"/>
		<path id="Coat-Back" class="st4" d="M102.8-11.8l6.9-2.3C119,9.2,132.9,31.7,156,50.7l-5.7,9.9c-20.4-12-39.7-21.3-47.5-39.3
			C100.2,15.2,102.6-4.6,102.8-11.8z"/>
		<path id="Shirt" class="st5" d="M79.3,53.6c19.6,2.1,35.1,2.1,46.4,0c1.4-0.3,1.6-2.6,1-4.2c-10.1-24.7-17-46.3-17-63.5
			c-1.9,0.9-5.1,1.1-9.7,0.4C87.4,4.1,81.7,24.4,79.3,53.6z"/>
		<path id="Coat-Front" class="st6" d="M96.8-15.1h5.2c1.2,7.1,5,103.3,16.8,134.8H55.1c1.4-28.8,12.3-63.4,23.3-92.4
			c-9.7,8.9-18.2,24-25.5,45.3L41,69.5c8.9-38.2,27.1-66.3,54.7-84.2c0.1-0.1,0.1-0.3,0.2-0.4h0.5c0.2-0.1,0.3-0.2,0.5-0.3
			L96.8-15.1z"/>
	</g>
</g>
</svg>
