<?xml version="1.0" encoding="utf-8"?>
<!-- Generator: Adobe Illustrator 24.1.2, SVG Export Plug-In . SVG Version: 6.00 Build 0)  -->
<svg version="1.1" id="Layer_1" xmlns="http://www.w3.org/2000/svg" xmlns:xlink="http://www.w3.org/1999/xlink" x="0px" y="0px"
	 viewBox="0 0 247 300" style="enable-background:new 0 0 247 300;" xml:space="preserve">
<style type="text/css">
	.st0{fill-rule:evenodd;clip-rule:evenodd;fill:#FFFFFF;}
	.st1{fill-rule:evenodd;clip-rule:evenodd;fill:#006466;}
	.st2{fill-rule:evenodd;clip-rule:evenodd;fill:#E4E4E4;}
	.st3{fill-rule:evenodd;clip-rule:evenodd;fill:#69A1AC;}
	.st4{fill-rule:evenodd;clip-rule:evenodd;fill:#89C5CC;}
	.st5{fill-rule:evenodd;clip-rule:evenodd;fill:#C1DEE2;}
	.st6{fill-rule:evenodd;clip-rule:evenodd;fill-opacity:0.2;}
</style>
<g id="head" transform="translate(82.000000, 0.000000)">
	<g id="Head_x2F_Front_x2F_Rad">
		<g id="Head" transform="translate(54.000000, 31.000000)">
			<path class="st0" d="M-14.6,25.6c-2.9-3.4-4.8-7.5-4.5-12.2C-18.2,0,0.5,3,4.1,9.7s3.2,23.9-1.5,25.1c-1.9,0.5-5.8-0.7-9.9-3.1
				l2.5,18h-15L-14.6,25.6z"/>
		</g>
		<path id="Hair" class="st1" d="M28.4,39.9c-0.5-0.5-0.7-1.2-1-1.8c-0.2-0.7-0.5-1.4-0.6-2.1c-0.3-1.4-0.3-3,0.7-4.1
			c0.8-0.9,2-1.3,3.1-1.4c0.7-0.1,1.5,0,2.2,0.3c0.7,0.2,1.3,0.7,2,1c0-1.5,0.3-3.1,1.1-4.4c0.7-1.2,1.9-1.9,3.3-2.1
			c1.4-0.2,2.7,0.1,4,0.8c0.3,0.2,0.6,0.3,0.9,0.5c0.2,0.2,0.5,0.4,0.8,0.4c0.3,0.1,0.5-0.1,0.7-0.3c0.2-0.3,0.5-0.5,0.8-0.7
			c1.3-0.9,3-1.3,4.5-0.8c0.7,0.3,1.4,0.7,1.8,1.3c0.4,0.5,0.7,1.4,1.3,1.8c0.2,0.2,0.4-0.1,0.6-0.2c0.3-0.2,0.7-0.5,1-0.7
			c0.5-0.3,1-0.6,1.5-0.7c0.8-0.2,1.9-0.1,2.1,0.9c0.1,0.4,0,0.8,0,1.2c0,0.5-0.1,1.1-0.1,1.6c0,0.4-0.1,0.8-0.2,1.2
			c0,0.2-0.2,0.6-0.1,0.8c0.1,0.3,0.7,0.1,0.9,0.1c0.5,0,0.9,0.1,1.3,0.3c0.3,0.2,0.7,0.4,0.8,0.7c0.1,0.2,0.1,0.5,0,0.7
			c0,0.3,0,0.4,0,0.7c0.6-0.3,2.7-1,3,0.1c0.1,0.4-0.1,0.8-0.3,1.1c-0.3,0.5-0.6,1-1,1.5c-0.8,1-1.7,1.8-2.6,2.5
			c1.1,0.5,1.4,2,0.4,2.9c-0.4,0.4-1,0.5-1.6,0.5c-0.2,0-0.5-0.1-0.6-0.1c-0.1,0-0.2,0.1-0.3,0.1c-0.8,0.1-1.6-0.1-2.4-0.3
			c-1.3-0.3-2.6-0.9-3.7-1.9c-0.3-0.2-0.5-0.4-0.8-0.4c-0.3,0-0.6,0.1-0.9,0.1c-0.8,0-1.6-0.4-2.4-0.7c0,1-0.3,2.2-0.8,3.1
			c-0.3,0.8-1.1,0.9-1.8,0.9c-2.3,0.2-4.6,0-6.9,0c2.2,0.5,4.5,0.7,6.7,1.3c1,0.3,0.2,0.9-0.2,1.4c-0.7,0.8-1.2,1.7-1.6,2.7
			c-1.1-1.4-3-2.3-4.7-1.9c-1.9,0.5-3.2,3-2,4.8c0.7,1.1,1.9,1.5,3,1.9c-0.8,0.8-1,2.1-1.5,3.1c-0.2,0.5-0.6,1.1-1.1,1.3
			c-0.2,0.1-0.4,0.1-0.6,0.2c-0.2,0.2-0.2,0.4-0.5,0.6c-1,0.7-2.6,0.6-3.4-0.3c-0.8-0.8-0.6-2.1,0.1-2.9c-1.1-0.4-3-1-2.6-2.7
			c-2.3-0.2-7.9-3.9-4.8-6.6c-1.7-1-3.2-3.3-2.2-5.4C24.8,40.7,26.8,40,28.4,39.9"/>
	</g>
</g>
<g id="bottom" transform="translate(0.000000, 187.000000)">
	<g id="Bottom_x2F_Standing_x2F_Baggy-Pants">
		<polygon id="Leg" class="st0" points="115,-54.5 145.7,23.1 166.3,88.8 174.4,88.8 142.9,-54.5 		"/>
		<path id="Leg_1_" class="st0" d="M108.8-54.5c-0.3,27.3-5.1,64-5.9,65.7c-0.5,1.1-18,15.6-52.5,43.3l5.6,6
			c40.7-23.8,62-37.2,63.9-40.4c2.8-4.8,12-48.5,19.4-74.6H108.8z"/>
		
			<g id="Accessories_x2F_Shoe_x2F_Flat-Sneaker" transform="translate(51.500000, 189.000000) rotate(50.000000) translate(-51.500000, -189.000000) translate(21.000000, 169.000000)">
			<path id="shoe" class="st2" d="M-75.3-66.4c-0.7,1.9-1,3.3-1,4.2c0,1.1,0.2,2.8,0.6,4.9c1.3,0,13.1,0,35.3,0
				c0.9-3,0.4-4.7-1.6-4.9s-3.6-0.5-4.9-0.7l-16.4-7.3c-0.3-0.1-0.7,0-0.8,0.3c0,0,0,0,0,0l-1.1,2.6c-1.8,0.9-3.3,1.3-4.5,1.3
				c-0.9,0-2.2-0.4-3.8-1.1l0,0C-74.2-67.3-74.9-67.1-75.3-66.4C-75.2-66.4-75.2-66.4-75.3-66.4z"/>
		</g>
		<g id="Accessories_x2F_Shoe_x2F_Flat-Sneaker_1_" transform="translate(208.000000, 199.000000)">
			<path id="shoe_1_" class="st2" d="M-45.1-113.2c-0.7,1.9-1,3.3-1,4.2c0,1.1,0.2,2.8,0.6,4.9c1.3,0,13.1,0,35.3,0
				c0.9-3,0.4-4.7-1.6-4.9c-2-0.2-3.6-0.5-4.9-0.7l-16.4-7.3c-0.3-0.1-0.7,0-0.8,0.3c0,0,0,0,0,0l-1.1,2.6c-1.8,0.9-3.3,1.3-4.5,1.3
				c-0.9,0-2.2-0.4-3.8-1.1l0,0C-44-114.2-44.8-114-45.1-113.2C-45.1-113.3-45.1-113.3-45.1-113.2z"/>
		</g>
		<polygon id="Pant" class="st3" points="135.6,82 174.3,77.8 145.6,-54.5 111,-54.5 		"/>
		<path id="Pant_1_" class="st4" d="M58.4,44.8l25.3,30c26.7-29.1,42.2-48.2,46.7-57.1c4.4-8.9,8.4-33,11.9-72.2h-39
			c-1.9,34.6-3.2,52.6-3.9,54.2C98.8,1.3,85.1,16.4,58.4,44.8z"/>
	</g>
</g>
<g id="torso" transform="translate(22.000000, 82.000000)">
	<g id="Body_x2F_Pregnant">
		<path id="Shirt" class="st5" d="M92.4-13.7c0.1-0.5,0.3-1,0.4-1.4l0.6,0.3c0.1-0.1,0.2-0.2,0.3-0.3l17.5,2.7c0,9.8,7.8,19,12.8,27
			c7.7,12.3,21.4,26,12.6,44.2c-7.9,16.5-28.5,19.2-61.8,8c0-8.9,7.3-17.8,7.5-28.6C82.5,28,84.4-3.2,92.4-13.7z"/>
		<path id="Skin" class="st0" d="M114.2,54.1c1.2-6,1.9-10.1,2.3-12.1c9.3,10.5,14.7,15.9,16.2,16c2.7,0.2,4.7-2.2,5.3-1.5
			c0.9,2.8-1.7,9.9-6.8,10.9c-2.4,0.5-6.2-4.5-7.8-6.3C122.7,60.3,119.6,58,114.2,54.1z M130.3,21.9c2.4,0,3.7,1,5.1,3
			s2.8,11.5,0.5,11.5c-2.3,0-11.9-3.7-11.9-6.1s6.6-3.5,6.6-5.4C130.5,23.1,127.8,21.9,130.3,21.9z"/>
		<path id="Shade" class="st6" d="M109.3,63.3c-0.1,0.5-0.3,1-0.4,1.6C81.5,45.7,81.5,22.6,89.6-3.4C83.5,22.2,86,43.7,109.3,63.3z"
			/>
	</g>
</g>
</svg>
