<?xml version="1.0" encoding="utf-8"?>
<!-- Generator: Adobe Illustrator 24.1.2, SVG Export Plug-In . SVG Version: 6.00 Build 0)  -->
<svg version="1.1" id="Layer_1" xmlns="http://www.w3.org/2000/svg" xmlns:xlink="http://www.w3.org/1999/xlink" x="0px" y="0px"
	 viewBox="0 0 253 300" style="enable-background:new 0 0 253 300;" xml:space="preserve">
<style type="text/css">
	.st0{fill-rule:evenodd;clip-rule:evenodd;fill:#3E1F47;}
	.st1{fill-rule:evenodd;clip-rule:evenodd;fill:#0B525B;}
	.st2{fill-rule:evenodd;clip-rule:evenodd;fill:#E4E4E4;}
	.st3{fill-rule:evenodd;clip-rule:evenodd;fill:#69A1AC;}
	.st4{fill-rule:evenodd;clip-rule:evenodd;fill:#89C5CC;}
	.st5{fill-rule:evenodd;clip-rule:evenodd;fill:#2026A2;}
	.st6{fill-rule:evenodd;clip-rule:evenodd;fill:#F2F2F2;}
	.st7{fill-rule:evenodd;clip-rule:evenodd;fill:#1F28CF;}
</style>
<g id="head" transform="translate(82.000000, 0.000000)">
	<g id="Head_x2F_Front_x2F_Long">
		<path id="Hair-Back" class="st0" d="M60.4,43.9c2.2,7.9,5,25.8,2.1,28.6H44.3c0,0,0-0.1,0-0.1c-6.7-0.7-11.9-6.4-11.9-13.4V45.9
			c0-7.4,6-13.4,13.4-13.4h1.3C53.8,32.5,59.4,37.5,60.4,43.9z"/>
		<g id="Head" transform="translate(54.000000, 31.000000)">
			<path class="st1" d="M-14.6,25.6c-2.9-3.4-4.8-7.5-4.5-12.2C-18.2,0,0.5,3,4.1,9.7s3.2,23.9-1.5,25.1c-1.9,0.5-5.8-0.7-9.9-3.1
				l2.5,18h-15L-14.6,25.6z"/>
		</g>
		<path id="Hair-Front" class="st0" d="M43.5,54.3c0.7,7.4,0.4,15.9-1.6,17.9H23.7c-1-17.5,8.8-10.8,8.8-27.3
			c0.6-0.6,1.2-1.2,1.8-1.7l0-0.5c3.1-6.4,7.1-9.6,11.9-9.6c7.2,0,9.5,3.4,11.5,6.2c-1.5,5-7.1,5.7-12.1,8.8
			c-0.6-0.5-1.3-0.8-2.2-0.8c-1.9,0-3.4,1.5-3.4,3.4s1.5,3.4,3.4,3.4C43.4,54.3,43.4,54.3,43.5,54.3z"/>
	</g>
</g>
<g id="bottom" transform="translate(0.000000, 187.000000)">
	<g id="Bottom_x2F_Standing_x2F_Baggy-Pants">
		<polygon id="Leg" class="st1" points="115,-54.5 145.7,23.1 166.3,88.8 174.4,88.8 142.9,-54.5 		"/>
		<path id="Leg_1_" class="st1" d="M108.8-54.5c-0.3,27.3-5.1,64-5.9,65.7c-0.5,1.1-18,15.6-52.5,43.3l5.6,6
			c40.7-23.8,62-37.2,63.9-40.4c2.8-4.8,12-48.5,19.4-74.6H108.8z"/>
		
			<g id="Accessories_x2F_Shoe_x2F_Flat-Sneaker" transform="translate(51.500000, 189.000000) rotate(50.000000) translate(-51.500000, -189.000000) translate(21.000000, 169.000000)">
			<path id="shoe" class="st2" d="M-75.3-66.4c-0.7,1.9-1,3.3-1,4.2c0,1.1,0.2,2.8,0.6,4.9c1.3,0,13.1,0,35.3,0
				c0.9-3,0.4-4.7-1.6-4.9s-3.6-0.5-4.9-0.7l-16.4-7.3c-0.3-0.1-0.7,0-0.8,0.3c0,0,0,0,0,0l-1.1,2.6c-1.8,0.9-3.3,1.3-4.5,1.3
				c-0.9,0-2.2-0.4-3.8-1.1l0,0C-74.2-67.3-74.9-67.1-75.3-66.4C-75.2-66.4-75.2-66.4-75.3-66.4z"/>
		</g>
		<g id="Accessories_x2F_Shoe_x2F_Flat-Sneaker_1_" transform="translate(208.000000, 199.000000)">
			<path id="shoe_1_" class="st2" d="M-45.1-113.2c-0.7,1.9-1,3.3-1,4.2c0,1.1,0.2,2.8,0.6,4.9c1.3,0,13.1,0,35.3,0
				c0.9-3,0.4-4.7-1.6-4.9c-2-0.2-3.6-0.5-4.9-0.7l-16.4-7.3c-0.3-0.1-0.7,0-0.8,0.3c0,0,0,0,0,0l-1.1,2.6c-1.8,0.9-3.3,1.3-4.5,1.3
				c-0.9,0-2.2-0.4-3.8-1.1l0,0C-44-114.2-44.8-114-45.1-113.2C-45.1-113.3-45.1-113.3-45.1-113.2z"/>
		</g>
		<polygon id="Pant" class="st3" points="135.6,82 174.3,77.8 145.6,-54.5 111,-54.5 		"/>
		<path id="Pant_1_" class="st4" d="M58.4,44.8l25.3,30c26.7-29.1,42.2-48.2,46.7-57.1c4.4-8.9,8.4-33,11.9-72.2h-39
			c-1.9,34.6-3.2,52.6-3.9,54.2C98.8,1.3,85.1,16.4,58.4,44.8z"/>
	</g>
</g>
<g id="torso" transform="translate(22.000000, 82.000000)">
	<g id="Body_x2F_Pointing-Up">
		<path id="Skin" class="st1" d="M142.7-13.7l23.7-7.1c4.4-3.4,8.6-6,12.5-7.5c1.1-0.2,3-0.1,0.7,2.6s-4.7,5.6-4,6.7
			c0.7,1.1,3.1,0.3,3.8,2.1c0.5,1.2-3.6,2-12.2,2.5L148.7-3.6L142.7-13.7z M140.6,28.1l19.9,14.6c5.4,1.5,9.9,3.3,13.6,5.4
			c0.9,0.8,1.9,2.4-1.7,2.1c-3.6-0.3-7.3-0.4-7.8,0.8c-0.5,1.2,1.7,2.7,0.7,4.3c-0.7,1.1-3.8-1.6-9.4-8.2L136.2,39L140.6,28.1z"/>
		<path id="Coat-Back" class="st5" d="M109.6-11.3c10.9,20.2,26.6,35.8,49.3,51.9l-8.6,9.7c-25.4-9.4-38.8-15.1-45.4-34.3
			c-1.7-4.8-2.8-20.1-3.8-28.2L109.6-11.3z"/>
		<path id="Shirt" class="st6" d="M79.3,56.1h48.1c-10.9-33.2-16.5-56.1-16.7-68.5c0-0.6-1.2-1.7-1.7-1.6c-3.8,1.1-7.8,0.7-12.1-1.2
			C85.4,3.2,81.5,25.8,79.3,56.1z"/>
		<path id="Coat-Front" class="st7" d="M101-15.1c13.8,0.1,36.2,2.6,62-5.7L165.5-8C146,4.5,126.2,14.2,108.9,12.9
			c7.5,32.2,7.2,58.6-9.4,58.6c-7.9,0-16.5,0-25.7,0C69.8,44.1,80.5,6.1,90.4-13c0.4-0.7,1.2-2.1,3.1-2.1
			C95.2-15.1,97.6-15.1,101-15.1C101-15.1,101-15.1,101-15.1z"/>
	</g>
</g>
</svg>
