<?xml version="1.0" encoding="utf-8"?>
<!-- Generator: Adobe Illustrator 24.1.2, SVG Export Plug-In . SVG Version: 6.00 Build 0)  -->
<svg version="1.1" id="Layer_1" xmlns="http://www.w3.org/2000/svg" xmlns:xlink="http://www.w3.org/1999/xlink" x="0px" y="0px"
	 viewBox="0 0 240 300" style="enable-background:new 0 0 240 300;" xml:space="preserve">
<style type="text/css">
	.st0{fill-rule:evenodd;clip-rule:evenodd;fill:#FFFFFF;}
	.st1{fill-rule:evenodd;clip-rule:evenodd;fill:#006466;}
	.st2{fill-rule:evenodd;clip-rule:evenodd;fill:#E4E4E4;}
	.st3{fill-rule:evenodd;clip-rule:evenodd;fill:#69A1AC;}
	.st4{fill-rule:evenodd;clip-rule:evenodd;fill:#89C5CC;}
	.st5{fill-rule:evenodd;clip-rule:evenodd;fill:#2026A2;}
	.st6{fill-rule:evenodd;clip-rule:evenodd;fill:#1F28CF;}
</style>
<g id="head" transform="translate(82.000000, 0.000000)">
	<g id="Head_x2F_Front_x2F_Caesar">
		<g id="Head" transform="translate(54.000000, 31.000000)">
			<path class="st0" d="M-14.6,25.6c-2.9-3.4-4.8-7.5-4.5-12.2C-18.2,0,0.5,3,4.1,9.7s3.2,23.9-1.5,25.1c-1.9,0.5-5.8-0.7-9.9-3.1
				l2.5,18h-15L-14.6,25.6z"/>
		</g>
		<path id="Combined-Shape" class="st1" d="M44.1,49.3c-0.5-0.3-1.1-0.5-1.7-0.5c-1.7,0-3.1,1.5-3.1,3.1c0,1.6,0.8,2.9,1.9,3.5
			c-0.6,1.2-1.2,2-1.9,2.2c-2.7-0.3-6.3-7-6.3-12.5c0-6,4.8-11.3,13.8-11.3c8,0,11.1,3.3,11.3,6.3c-3.4,0.9-9.5,1.3-18.1,1.3v0.6
			l7.5,0.6l1.3,3.8C46.6,46.1,45.2,47.5,44.1,49.3z"/>
	</g>
</g>
<g id="bottom" transform="translate(0.000000, 187.000000)">
	<g id="Bottom_x2F_Standing_x2F_Baggy-Pants">
		<polygon id="Leg" class="st0" points="115,-54.5 145.7,23.1 166.3,88.8 174.4,88.8 142.9,-54.5 		"/>
		<path id="Leg_1_" class="st0" d="M108.8-54.5c-0.3,27.3-5.1,64-5.9,65.7c-0.5,1.1-18,15.6-52.5,43.3l5.6,6
			c40.7-23.8,62-37.2,63.9-40.4c2.8-4.8,12-48.5,19.4-74.6H108.8z"/>
		
			<g id="Accessories_x2F_Shoe_x2F_Flat-Sneaker" transform="translate(51.500000, 189.000000) rotate(50.000000) translate(-51.500000, -189.000000) translate(21.000000, 169.000000)">
			<path id="shoe" class="st2" d="M-75.3-66.4c-0.7,1.9-1,3.3-1,4.2c0,1.1,0.2,2.8,0.6,4.9c1.3,0,13.1,0,35.3,0
				c0.9-3,0.4-4.7-1.6-4.9s-3.6-0.5-4.9-0.7l-16.4-7.3c-0.3-0.1-0.7,0-0.8,0.3c0,0,0,0,0,0l-1.1,2.6c-1.8,0.9-3.3,1.3-4.5,1.3
				c-0.9,0-2.2-0.4-3.8-1.1l0,0C-74.2-67.3-74.9-67.1-75.3-66.4C-75.2-66.4-75.2-66.4-75.3-66.4z"/>
		</g>
		<g id="Accessories_x2F_Shoe_x2F_Flat-Sneaker_1_" transform="translate(208.000000, 199.000000)">
			<path id="shoe_1_" class="st2" d="M-45.1-113.2c-0.7,1.9-1,3.3-1,4.2c0,1.1,0.2,2.8,0.6,4.9c1.3,0,13.1,0,35.3,0
				c0.9-3,0.4-4.7-1.6-4.9c-2-0.2-3.6-0.5-4.9-0.7l-16.4-7.3c-0.3-0.1-0.7,0-0.8,0.3c0,0,0,0,0,0l-1.1,2.6c-1.8,0.9-3.3,1.3-4.5,1.3
				c-0.9,0-2.2-0.4-3.8-1.1l0,0C-44-114.2-44.8-114-45.1-113.2C-45.1-113.3-45.1-113.3-45.1-113.2z"/>
		</g>
		<polygon id="Pant" class="st3" points="135.6,82 174.3,77.8 145.6,-54.5 111,-54.5 		"/>
		<path id="Pant_1_" class="st4" d="M58.4,44.8l25.3,30c26.7-29.1,42.2-48.2,46.7-57.1c4.4-8.9,8.4-33,11.9-72.2h-39
			c-1.9,34.6-3.2,52.6-3.9,54.2C98.8,1.3,85.1,16.4,58.4,44.8z"/>
	</g>
</g>
<g id="torso" transform="translate(22.000000, 82.000000)">
	<g id="Body_x2F_Pointing-Forward">
		<path id="Skin" class="st0" d="M122.1,11.6l21.7-11.9c3.6-4.3,7.2-7.6,10.7-10c1.1-0.4,2.9-0.7,1.2,2.4s-3.5,6.5-2.6,7.4
			s3.1-0.4,4.2,1.2c0.7,1.1-3.1,2.7-11.4,5l-15.8,14.4L122.1,11.6z M156.1,21.6l9.5-5.2c1.3-5.1,2.9-7.6,4.8-7.7
			c1.4-0.7-1.1,5.8,1.6,5.2c2.7-0.6,9.3-5.5,10.5-4.5c1.7,1.5,0.2,6-1.6,8.3c-3.3,4.2-6,5.7-12.8,7.5c-3.5,1-7.4,3-11.5,5.9
			L156.1,21.6z"/>
		<path id="Sleeve" class="st5" d="M111.6,8.9c7.6-0.1,17.7-1.7,28.5-8.5l4.2,9.5c-7.5,7.4-17.9,13.5-27.1,13.2
			C110,22.9,106.3,14.1,111.6,8.9z"/>
		<path id="Clothes" class="st6" d="M121.8,24.1c8.1,2,21.6-0.4,40.6-7.1c4.7,9.7,6.9,16.7,6.5,20.8c-16.3,8.5-30.3,12.3-41.8,12.6
			c0.4,6.8-0.5,13.3-3.3,19.3c-5.7,12.2-39.3,0.9-50.6,3.1c-7.1-23,6.6-32.3,6.6-47c0-16.1,12.9-40.9,14.8-40.9h17.3
			C113-2.8,117.9,10.7,121.8,24.1z"/>
	</g>
</g>
</svg>
