<svg xmlns="http://www.w3.org/2000/svg" viewBox="0 0 123.83 92.99"><defs><style>.cls-1{fill:#224a5e;}</style></defs><g id="Layer_2" data-name="Layer 2"><g id="Layer_1-2" data-name="Layer 1"><g id="Layer_1-2-2" data-name="Layer 1-2"><path class="cls-1" d="M43.22,76.33c-4.49,0-9,.36-13.47-.1-4-.41-6.22,1.1-7.47,4.71a23.23,23.23,0,0,1-1.57,3.11C16,93.11,14.5,93.88,4.23,92.39.56,91.85-1.08,88.24.76,83.88,5.62,72.41,10.68,61,15.61,49.57,21.72,35.38,28,21.26,33.75,6.93,36,1.26,39.75,0,45.33,0s6.86,3.87,8.38,7.56c9.49,23,18.84,46.12,28.23,69.19A73.46,73.46,0,0,1,85,84.65c1.21,4.26-1.34,7.51-5.75,7.74-10.49.53-12-.33-15.85-11.33-1.27-3.59-2.88-5-6.72-4.75-4.47.35-9,.08-13.48.08Zm-11.16-17c3.7,0,7,.13,10.24,0,3.74-.18,9.15,1.71,10.78-.87s-2.4-6.68-3.72-10.22c-1.8-4.85-4.06-9.55-6.52-15.23Z"/><path class="cls-1" d="M105.5,46.26c0-12.66-.07-25.32,0-38,.06-7.15,1.92-8.35,12-8.25,4.7,0,6.33,2.33,6.33,8.52v75c0,7.56-1.58,9-10.14,9-6.56,0-8.49-2.1-8.49-9.23v-37Z"/></g></g></g></svg>