<?xml version="1.0" encoding="utf-8"?>
<!-- Generator: Adobe Illustrator 24.1.2, SVG Export Plug-In . SVG Version: 6.00 Build 0)  -->
<svg version="1.1" id="Layer_1" xmlns="http://www.w3.org/2000/svg" xmlns:xlink="http://www.w3.org/1999/xlink" x="0px" y="0px"
	 viewBox="0 0 643.2 826" style="enable-background:new 0 0 643.2 826;" xml:space="preserve">
<style type="text/css">
	.st0{fill:#1B3A4B;}
</style>
<g id="Layer_2_1_">
	<g id="Layer_1-2">
		<path class="st0" d="M31.5,390.2c-4-2.9-7.5-4.9-10.3-7.6c-4.5-4.3-4.4-8.9-0.4-13.6c4.4-5.2,3.8-11.8-1.8-16.2
			c-3.5-2.7-7.6-4.8-11.4-7.1c-8.8-5.2-9.6-10.4-3.5-18.7c7.7-10.4,15.2-21,22.4-31.8c5.4-8.2,7.6-18,6.2-27.7
			c-6.1-45.2,8.6-84.1,36.3-118.9c36.2-45.5,81.3-79.5,134.7-102.3c24.9-10.6,50.6-18.7,77.6-21.8c6.2-0.7,9.5-2.7,12.7-8.2
			C300.3,5.3,310.5-1,323.8,0.1c12.5,1,21.5,7.4,26.6,19c1.1,2.5,2.3,3.8,5.3,4.2c32.8,4.3,64.1,14.1,93.9,28.1
			c31,14.5,58.3,34.6,83.4,57.9c22.3,20.7,41.9,43.4,57,69.8c17.3,30.2,25.7,62.5,20.7,97.4c-2.6,18,1.8,33.6,11.9,48.1
			c6,8.6,11.9,17.3,17.7,26c5.3,7.8,3.5,13.5-5.2,17.5c-4.4,2-8.9,3.8-13,6.3c-6.6,3.9-8.5,12.4-3.4,18.1c5.7,6.5,4,13.5-4.2,17.9
			c-2.2,1.1-4.3,2.5-6.7,3.9c1.3,1.5,2.3,2.5,3.3,3.6c5.6,6.6,4.4,13.6-2.9,18.1c-0.9,0.5-1.7,1-2.6,1.5c-6.5,3.6-7.1,5.2-4.7,12.4
			c6.4,19.5-4.9,37.3-25.4,40.1c-12.2,1.7-23.8-1.2-35.6-3.6c-7.5-1.6-15-2.9-22.6-3.7c-16.3-1.6-29.9,4.2-40.4,16.5
			c-18,21.1-32,44.6-42.9,70c-12.2,28.3-18.6,57.6-18,88.4c0.2,9.7,0,19.3,0,29c0,1.8-0.2,3.6-0.6,5.4c-0.8,3.2-2.8,5.4-6.3,5.3
			s-5.9-2.3-6.6-5.7c-0.3-2-0.4-4-0.3-6c-0.3-16.3,0-32.7-1.1-48.9c-1.3-21.3-10.7-40-20.8-58.3c-12.9-23.4-28.2-45.2-44.8-66.1
			c-1.8-2.3-4-4.3-7.1-7.5v7.4c0,58-0.1,116-0.1,174c0.1,2,0,4-0.3,6c-0.8,3.5-3.1,5.7-6.7,5.5s-5.8-2.4-6.2-6
			c-0.2-1.7-0.2-3.3-0.1-5c0-58.2-0.1-116.3-0.1-174.5v-6.8c-2.3,2.5-3.6,3.9-5,5.5c-21.5,24.3-40.4,50.5-55.5,79.2
			c-10.8,20.5-17,42.3-17,65.6c0,10.7-0.2,21.3-0.3,32c0.1,0.8,0.1,1.7,0,2.5c-0.5,4-2.5,7.2-6.8,7.3s-6.6-3.1-6.9-7.1
			c-0.4-5,0-10-0.2-15c-0.8-19.4-0.2-39.1-3-58.3c-5.6-37.8-21-72.5-39.3-105.7c-7.4-13-15.6-25.5-24.7-37.5
			c-11.6-15.6-27.4-21.4-46.8-17.5c-11.3,2.3-22.6,4.3-33.9,6c-8,1.3-16.1,0.3-23.6-2.8c-14-5.6-20.4-19.7-15.5-33.8
			c2.7-7.9,2.7-8-4-12.6c-1.8-1.1-3.5-2.5-5.1-4c-4.6-4.9-4.2-11,0.7-15.5L31.5,390.2z M556.3,252.5c6.6,0.9,12.9,1.5,19.1,2.5
			c3.8,0.6,7.4,1.6,11,3c3.7,1.4,5.4,4.5,4.1,8.5c-1.2,3.7-4,5.2-7.8,4.5c-1.8-0.3-3.5-1-5.3-1.3c-7.2-1.1-14.5-2.1-21.7-3.1
			c-2.6-0.4-4.3,0.5-5.1,3.4c-1.9,6.3-4.2,12.5-6.3,18.9c8.3,6.2,16.1,12.7,27.3,7.3c4.7-2.3,9.4-0.5,11,3.4
			c1.4,3.5-0.6,7.1-5.4,9.3c-10.9,4.8-21.4,4.2-31.4-2.3c-2.1-1.4-4-2.9-6.3-4.5c-0.8,1.1-1.6,2.3-2.3,3.5
			c-14.7,32.5-33.8,62.9-56.8,90.2c-5.9,7-10.1,15.1-10.2,24.5c-0.2,14.7,8.4,24.4,19.8,32c16.9,11.4,36,17,55.5,21.6
			c9.9,2.3,19.9,4.6,30.1,2.1c11.4-2.8,16-11.4,12.1-22.3c-0.4-1.1-0.8-2.2-1.2-3.3c-2.9-9.1-0.3-16.4,7.6-21.6
			c1.6-1.1,3.2-2.1,4.8-3.2c-0.1-0.5-0.2-1-0.2-1.5c-4-0.3-8-0.5-12-0.9s-8.4-0.5-9.4-5c-1.1-4.8,3.7-6.1,6.9-7.9
			c7.4-4.1,14.9-8.1,22.3-12.1c-8.4-16.5-4.5-28.5,11.7-37c2.9-1.5,5.9-3,9-4.7c-5.5-8.1-10.8-16-16.1-23.8
			c-12.4-17.9-17.2-37.4-14.1-59.2c4.5-31.8-3.5-61.1-19.3-88.6c-3-5.2-6.5-10.2-9.9-15.4c-1.1,14.3-1.4,28.1-3.3,41.7
			C562.6,225,559.2,238.6,556.3,252.5z M171.1,405.7c-35.1-36.9-57.6-79.5-73.6-126.1c-0.9,0.7-1.7,1.3-2.5,1.8
			c-9.8,6.5-20,6.9-30.3,1.9c-3.6-1.8-6.6-4.7-4.6-9.2s5.8-3.5,9.4-2.3c8.3,2.8,15.9,1.7,22.1-4.6c1.4-1.6,2.1-3.7,1.9-5.9
			c-0.4-3.8-2.2-7.5-2.3-11.2c0-5.1-2.5-5.8-6.6-5.3c-8.2,0.9-16.5,1.7-24.8,2.6c-3.7,0.4-7.3,0.1-8.5-4.2s1.5-6.7,5-8.1
			c2.6-1.1,5.3-1.9,8.1-2.2c7.7-0.8,15.5-1.3,23.6-1.9c-3.5-31.4-3-62.3,7.4-92.6c-5.2,5.4-10.2,11-14.8,16.9
			c-14,17.6-25.2,36.8-31.4,58.6c-4.5,15.8-5,31.9-3.5,48.1c1.8,17.4-2.8,34.9-13,49.1c-5.3,7.6-10.7,15.2-16.3,23.1
			c3.2,2.3,6.9,4.7,10.5,7.4c9,6.7,11.9,15.3,8.7,25.9c-0.7,1.9-1.5,3.8-2.3,5.6c1.9,1.4,3.6,2.7,5.4,3.9c6,3.9,12.2,7.5,18,11.6
			c1.7,1.2,3.5,4.1,3.2,5.9s-3,3.6-5.1,4.4c-2.2,0.9-4.9,0.5-7.4,0.9s-5,0.9-8.6,1.5c2.4,1.7,3.7,2.5,4.8,3.4
			c7.7,5.8,9.8,12.9,6.6,22c-0.5,1.4-1,2.8-1.5,4.2c-2.2,7.4,1.7,14.8,9.2,16.7c3.2,0.9,6.5,1.3,9.9,1.2
			c29.9-1.2,57.9-9.1,83.1-25.2C158.4,418.9,164.3,411.9,171.1,405.7z M456.2,104c-6.2-13-14.5-24.8-24.8-34.9
			c-20.8-20.6-46.8-29.1-75.2-31.9c-3.1-0.3-3.7,1.2-4.5,3.8c-3.7,11.8-11.1,20.1-23.5,22.8c-12,2.6-22.2-1.3-29.9-10.5
			c-3.8-4.5-6.3-10-9.7-15.4c-21.6-1.1-53.1,8.9-70,23.2c-11.7,9.9-22,21.2-29.6,35.5c50.5,4.9,93.5,25.9,133.1,54.6
			C362.5,123.2,406.8,107.5,456.2,104z M551.4,214l-1.8-0.7c-2.2,2.5-4.3,5-6.5,7.4c-16.5,18.1-37.4,28.4-60.4,35.3
			c-1.9,0.6-4.4,2-5,3.7c-2.9,7.4-5.1,15.1-7.9,22.6c-1.1,3-1,4.8,1.7,7.2c9.4,8.5,11.6,23.4,5.6,35c-5.9,11.3-18.7,17.2-31.1,14.5
			c-3-0.6-4.4,0.2-6.2,2.5c-7.3,9.5-14.2,19.4-22.4,28.1c-17.9,19.2-38.7,34.2-64.7,40.6c-7.9,1.9-16,2.8-24.3,4.3c0,12,0,24,0,35.9
			c0,0.8,0.3,2.1,0.7,2.2c6.4,2.1,10.8,9.6,19.3,6.6c6.7-2.4,13.9-3.3,20.7-5.6c41.2-13.6,75.5-37.7,103.5-70.5
			c30.9-35.9,53.8-77.8,67.2-123.2C544.4,244.7,547.6,229.3,551.4,214z M429.9,331.5c-14.7-27.5-4.9-46.7,25.8-50
			c1.3-3.3,2.7-6.7,4-10.1s2.5-6.7,3.8-10.3c-0.7-0.1-1.5-0.2-2.2-0.2c-39.3,6.9-76.9,1.6-112.8-15.8c-5-2.4-9.3-4.7-13.5,1.1
			c-0.7,0.8-1.5,1.3-2.5,1.6c-3.8,1.1-4.3,3.7-4.3,7.3c0.1,46.6,0,93.3,0,139.9c0,1.6,0.2,3.1,0.3,4.7
			C365.7,400.1,401.9,373.8,429.9,331.5z M168.4,110.4c-12.7,0.4-24.4,1.8-35.5,6c-9.4,3.6-16.9,9.5-20.7,19
			c-3.2,7.9-6.5,15.9-8,24.1c-9.3,50.5-1.8,99.1,17.8,146.1c0.9,1.6,2.5,2.7,4.4,3c18.5,1.7,36.9,1.4,55.2-2.1
			c3-0.6,4.4-1.7,5.1-4.8c0.8-3.4,2.3-6.5,4.5-9.2c2-2.4,1.8-4.2,0.7-6.7c-4.2-9.2-8.7-18.4-12.3-27.8c-10.6-27.6-18.4-56-19.6-85.8
			C159.1,151.4,160.9,130.9,168.4,110.4z M310.5,158.3c-15-8.6-28.9-17.4-43.6-24.8c-25-12.6-51.1-21.8-79.4-23.6
			c-3.6-0.2-5.1,0.8-6.4,4.3c-8.4,23.6-9.5,47.9-6.7,72.5c3.4,29.7,13.1,57.7,25.2,84.8c1.9,4.3,4,8.5,6.4,13.5
			C224.7,229.1,263.8,191.5,310.5,158.3z M141.5,445.6c11.6,4.4,20,12.1,26.9,21.5c26.8,37,46.9,78.5,59.5,122.4
			c1.5,5.1,2.7,10.3,4.4,16.5c16.7-42.8,44.5-77,70.7-109.9l-7.3-23c-42.8-8.6-81.4-28.8-114.5-58.5c-6.2,5.9-11.8,12.1-18.3,17.2
			S149.1,440.8,141.5,445.6L141.5,445.6z M347.8,472.8c-2.7,8.2-5,15.3-7.7,23.4C366.4,529,391.6,564,407.7,605
			c1-2.1,1.8-4.3,2.3-6.6c9.7-37.5,27-71.1,50.8-101.5c8.7-11.2,19.1-20.4,32.8-25.3c0.2-0.1,0.2-0.5,0.4-1.2
			c-10-4.9-19.2-11-26.4-19.8s-11-19.1-11.4-31.5c-15.7,13.5-33,25-51.6,34.1C386.5,462.1,367.4,468.7,347.8,472.8L347.8,472.8z
			 M322.9,166.3c-3.6,2.6-7,5.1-10.4,7.4c-19.2,13.1-36.7,28.4-52.2,45.6c-17.2,19.1-30.8,40.5-39.6,64.9c-0.6,1.6,0.1,4,0.9,5.7
			c1.4,2.7,3.5,1.2,5.5,0.3c24.8-10.7,46-26.6,65.7-44.9c4.6-4.3,6.7-7.4,4.1-14.2c-3.7-9.8-0.8-19.1,7.2-26.3s17.1-9.1,26.9-4.6
			c9.6,4.4,15.1,12,14.9,22.8c-0.1,3.7,1,5.9,4.2,7.4c2.4,1.1,4.6,2.7,7,3.8c34.3,15.9,70,19.4,106.9,12.4c2-0.6,3.7-2.2,4.4-4.2
			c2.2-10.1,4-20.2,5.7-30.4c0.5-3,0.5-6.1,0.8-9.5C418.5,212,368.8,196.4,322.9,166.3z M314.8,400.6c0-2.9,0-4.5,0-6.1
			c0-19.2,0-38.3,0-57.5c0-27.5,0.1-55,0-82.4c0-1.6-1.1-4-2.3-4.6s-3.4,0.4-5,1.2c-1.3,0.8-2.4,1.8-3.4,2.9
			c-21.6,19.8-45.3,36.6-72.3,48.4c-1.3,0.6-2.3,2.4-2.9,3.9c-1.8,4.3-2.8,8.9-5.1,12.8c-1.4,2.4-1.6,3.9-0.2,6.1
			c7.1,10.4,13.8,21.2,21.4,31.3c12.8,16.9,28.7,30.1,48.7,37.9C300.2,396.9,307.2,398.4,314.8,400.6z M208.3,327.5
			c-1.4,4.5-2.4,7.5-3.3,10.5c-5.8,20.5-11.5,41-17.1,61.5c-0.4,1.3,0.8,3.7,2,4.7c31.3,28,67.2,47.1,108.7,54.9
			c2.1,0.4,14.8-5,15.8-6.8c0.2-0.6,0.3-1.3,0.3-1.9c0-12.1,0-24.3,0-36.7c-1.7-0.3-3.3-0.7-5-1c-14.6-2.5-28.6-7.9-41.1-16
			c-21.1-13.8-36.4-33-50.3-53.5C215.1,338.6,212.1,333.6,208.3,327.5z M336,157.1l-0.1,2.2c11.6,5.8,22.9,12.2,34.7,17.3
			c32,13.8,65.4,18.6,100.1,13.3c2.9-0.4,4.7-1,4.7-4.8c-0.1-20.6-2.9-40.7-9.7-60.3c-1.9-5.6-4.6-7.2-10.3-7
			c-30.3,1-58.8,8.7-86,21.8C358.1,145.1,347.1,151.3,336,157.1z M489,185.2c1.4-0.1,2.8-0.3,4.2-0.6c21.2-6.5,38.5-18.5,51.7-36.4
			c3-4.1,2.1-6.6-1.7-9.4c-10.3-7.6-22.1-13.1-34.6-16.1c-9.9-2.4-20.1-3.8-30.1-5.7l-1,1.5C486.1,139.9,488.4,162.3,489,185.2z
			 M130.3,323.1c12.2,25,27.8,48.1,46.5,68.7c0.9-2.6,1.7-4.6,2.2-6.6c5-19,9.8-38,14.8-57c1.6-6.2-2.2-10.6-8.6-9.3
			c-14.6,3.3-29.6,4.7-44.6,4.2C137.4,323,134.3,323.1,130.3,323.1z M483.9,240.6c33.1-7.1,70.8-40.9,68.5-80.3
			c-1.1,0.7-1.5,1.9-2.3,2.9c-9.8,13-22.5,22-37.4,28c-6.9,2.8-14.1,5-21,7.8c-1.5,0.6-3.3,2.3-3.5,3.7
			C486.6,215.3,485.3,227.8,483.9,240.6L483.9,240.6z M321.5,13.8c-10.3,0-18.5,8.3-18.5,18.9c0.1,9.8,8.1,17.8,17.9,17.7
			c0,0,0,0,0,0c10.2,0,18.4-8.2,18.6-18.3C339.8,22.5,331.3,13.8,321.5,13.8z M511.7,108.5c-19.2-16.8-39.2-31.4-61.6-41.5
			c6.7,11.6,13.4,23.3,20.3,35c0.8,1,1.9,1.7,3.1,1.8C485.9,105.3,498.4,106.8,511.7,108.5L511.7,108.5z M436.9,310.7
			c0,8.9,6.3,15.1,15.2,15.1c8.1,0,14.6-6.9,14.6-15.3c0-7.9-6.7-14.9-14.5-14.9c-8.3-0.2-15.1,6.4-15.3,14.7
			C436.9,310.4,436.9,310.6,436.9,310.7z M138.5,99.4c11.4-1,21.8-1.8,32.2-3c1.5-0.2,3.2-2,4.2-3.4c3.3-4.8,6.1-9.9,9.5-14.6
			c3.1-4.3,6.6-8.4,9.9-12.6C174.4,74.8,155.7,86.1,138.5,99.4z"/>
		<path class="st0" d="M519.9,795.8l9.2,15.4c0.8,1.3,2.1,2.5,2.2,3.9c0.2,2.6,0.8,6.5-0.6,7.5c-1.8,1.5-5.6,1.5-8.1,0.7
			c-2-0.6-3.7-3.2-5.1-5.2c-3.5-5-6.7-10.4-10.3-15.3c-1.3-1.6-3.2-2.5-5.2-2.8c-7.8-0.4-7.8-0.3-7.8,7.8c0,3.5,0,7-0.1,10.5
			c-0.1,3.8-2.3,5.9-5.9,6.3c-3.9,0.4-6.4-1.6-7.2-5.4c-0.3-1.5-0.4-3-0.4-4.5c-0.1-18.2-0.2-36.3-0.3-54.5c0-6.7,2-8.8,8.5-8.9
			c7.3-0.1,14.7-0.3,22,0.4c19,1.8,28.6,21,18,35.7C526.7,790.5,523.4,792.7,519.9,795.8z M503.7,764.8c-9.4-0.2-9.4-0.2-9.5,8.8
			c-0.1,14.3,0.5,14.8,14.8,12.4c0.3-0.1,0.7-0.1,1-0.2c5.6-1.4,8.7-5.9,8.2-12c-0.5-5.5-4-8.7-10-9
			C506.7,764.7,505.2,764.8,503.7,764.8z"/>
		<path class="st0" d="M425.4,794.4c0,4.9-0.3,9.3,0.2,13.5c0.1,1.1,2.5,2.7,4,2.8c7.1,0.3,14.3,0.1,21.5,0.1c5.3,0,8.9,2.8,8.8,6.7
			s-3.8,6.7-8.9,6.7c-10.3,0-20.7,0-31-0.1c-6.1,0-8-2-8.1-8.2c-0.1-18.2-0.2-36.3-0.2-54.5c0-8.3,1.8-10,10-10
			c10.2,0,20.3-0.1,30.5,0c5.5,0,8.9,3.5,7.7,7.9c-1,3.9-4,5.1-7.6,5.1c-6.8,0-13.7,0-20.5,0h-5.8v16.2c6.4,0,12.5,0,18.7,0
			c5.4,0,8.5,2.7,8.4,7c-0.1,4.1-3,6.5-8.3,6.6C438.5,794.5,432.4,794.4,425.4,794.4z"/>
		<path class="st0" d="M574.8,750.6c7,0,13.1,2.1,17.9,7.3c2.2,2.4,3.5,5.3,1.2,8.1s-5.4,3.8-8.9,1.9c-1.7-1-3.4-2.6-5.3-2.8
			c-3.5-0.3-7.5-0.9-10.4,0.5c-5.6,2.7-5.2,9.8,0.4,12.6c3.7,1.8,7.7,3.1,11.6,4.6c12.3,4.7,18.8,14.9,16,25.3
			c-3.4,12.5-15.7,20.4-28.6,17.2c-5.4-1.4-10.4-4.9-14.9-8.3c-2.7-2.1-4-6-0.7-9.2c3-2.9,6.2-2.5,9.4,0c3.6,2.9,7.4,5,12.3,4.4
			c4.4-0.6,7.7-2.5,8.8-6.9s-2.1-6.9-5.5-8.5c-5.1-2.4-10.6-3.9-15.7-6.5c-11.3-5.8-14.7-17.6-8.5-28.3
			C558.6,754,565.6,750.4,574.8,750.6z"/>
		<path class="st0" d="M95.1,817.4c0.2,5.9-5.3,9.2-9.5,6.3c-2.3-1.8-4.2-4.2-5.3-6.9c-1.5-3.2-3.4-4.5-6.9-4.3
			c-5.5,0.2-11,0.2-16.5,0c-3-0.1-4.6,1-5.5,3.7c-0.5,1.6-1.2,3.1-2.1,4.5c-2.4,3.9-6.4,5.5-9.7,3.8c-4.3-2.3-3.7-5.8-2.2-9.5
			c6.3-15,12.8-30,19.1-45c1.6-3.7,2.7-7.5,4.5-11.1c1-2,3-3.6,4.6-5.3c1.7,1.8,4.2,3.3,5.1,5.4c7.2,16.8,14,33.8,21,50.7
			C92.8,812.5,94.2,815.4,95.1,817.4z M59.5,798.6h12.9l-7-15.8L59.5,798.6z"/>
		<path class="st0" d="M303.6,750.7c6.7,0,12.8,1.8,17.8,6.6c2.8,2.7,4.2,5.8,1.5,9.3s-5.9,2.6-9.4,0.8c-3-1.5-6.4-3-9.7-3.2
			c-4.4-0.3-7.7,2.2-8.7,6.7s1.6,6.9,5.4,8.3c3.3,1.3,6.5,2.6,9.8,3.8c13.1,4.8,19.4,14.9,16.3,26.3c-3.2,11.8-14.7,18.5-27.8,16.3
			c-6.4-1.1-12.3-3.1-16.2-8.8c-2-3-2.8-6.1,0.2-9s6-2.4,8.9,0c4.3,3.6,9.3,5.7,14.8,4c2.7-0.9,5-2.8,6.4-5.3c1.5-3.2,0-6.6-3.3-8.5
			c-2.6-1.4-5.4-2.6-8.1-3.7c-2-0.8-4.1-1.3-6.1-2.1c-11.2-4.6-16.2-12.8-14.3-23.3S292.4,750.8,303.6,750.7z"/>
		<path class="st0" d="M201,825.8c-6.5-0.3-12.7-3.2-17-8.1c-2.6-3-4-6.5-1-9.8s6-1.7,9.4,0c3.7,2,7.7,3.4,11.9,4
			c4.1,0.5,7.4-2.1,8.3-6.4s-1.4-7.1-5-8.7s-7.5-2.8-11.2-4.3c-12.8-5.1-18.3-14.8-14.8-26c3.9-12.2,15.6-18.7,28.6-15.1
			c4.3,1.2,8.4,3.9,12.1,6.6c2.9,2,3.5,5.2,0.9,8.3s-5.3,3.8-8.8,1.9c-2.5-1.3-4.9-3-7.5-3.8c-5.2-1.6-10.6,1.1-11.7,5.7
			c-1,4.1,0.6,7.3,4.6,8.9s8.1,2.9,12.1,4.5c11.4,4.7,16.9,13.6,14.8,24C224.6,818.4,214.9,825.9,201,825.8z"/>
		<path class="st0" d="M374.3,764.3c0,3,0,5.1,0,7.2c0,14,0,28-0.1,42c0,1.3,0.1,2.7,0,4c-0.4,4.5-3,7.2-6.8,7.1s-6.4-2.9-6.4-7.4
			c-0.1-15.7-0.2-31.3,0-47c0.1-4.7-1.4-6.1-5.9-5.8c-3.7,0.2-7.3,0.1-10.9-0.5c-3.6-0.5-5.7-2.8-5.4-6.6s2.5-6,6.1-6
			c14.8-0.1,29.7-0.1,44.5,0.1c3.8,0,6.3,2.5,6.2,6.4s-2.4,6.2-6.3,6.3C384.6,764.4,380,764.3,374.3,764.3z"/>
		<path class="st0" d="M246.1,787.8c0-9.3-0.1-18.7,0-28c0-5.7,2.4-8.5,6.9-8.4c4.5,0,7.1,3,7.1,8.4c0,18.6-0.1,37.3-0.1,55.9
			c0,0.2,0,0.3,0,0.5c-0.2,5.3-3,8.4-7.2,8.4c-4,0-6.5-3-6.6-8.3C246.1,806.8,246.2,797.3,246.1,787.8L246.1,787.8z"/>
		<path class="st0" d="M126.7,787.2c0,9.2,0,18.3,0,27.5c0.1,1.2,0,2.3-0.1,3.5c-0.8,3.8-2.9,6.6-7.1,6.3c-4-0.3-6.4-2.8-6.4-6.9
			c-0.1-19.8-0.1-39.6,0-59.4c0-4.1,2.5-6.5,6.5-6.8c3.7-0.3,6.9,2.8,6.9,6.9c0.1,9.6,0,19.3,0,29H126.7z"/>
	</g>
</g>
</svg>
